<svg xmlns="http://www.w3.org/2000/svg" xmlns:xlink="http://www.w3.org/1999/xlink" viewBox="0 0 114.27 78.79"><defs><style>.cls-1{fill:none;}.cls-2{isolation:isolate;}.cls-3{fill:#2d2d2d;}.cls-4{fill:#444;}.cls-5{fill:#5e5e5e;}.cls-6{fill:#fff;}.cls-7{fill:#b0928a;}.cls-49,.cls-65,.cls-7,.cls-70,.cls-75{opacity:0.5;}.cls-36,.cls-7,.cls-70{mix-blend-mode:multiply;}.cls-8{fill:#2267b1;}.cls-9{fill:#656666;}.cls-10{fill:#4c4c4c;}.cls-11{fill:#cacac9;}.cls-12{fill:#b1b1b1;}.cls-13{fill:#5b92cd;}.cls-14{fill:#2f415f;}.cls-15{fill:#b1d2ee;}.cls-16{fill:#3473b9;}.cls-17{fill:#24334a;}.cls-18{fill:#192434;}.cls-19{fill:#3d79bd;}.cls-20{fill:#4783c4;}.cls-21{fill:#0e518f;}.cls-22{fill:#75aadb;}.cls-23{fill:#417cbe;}.cls-24{fill:#3e5880;}.cls-25{fill:#324766;}.cls-26{fill:#202d42;}.cls-27{fill:#4b6a98;}.cls-28{opacity:0.3;mix-blend-mode:color-dodge;}.cls-29{fill:#1761ac;}.cls-30{fill:#ffd76e;}.cls-31{fill:#f05822;}.cls-32{fill:#606161;}.cls-33{fill:#fdd900;}.cls-34{fill:#c5c5c5;}.cls-35{fill:#f48220;}.cls-37{fill:#faa819;}.cls-38{fill:#f37920;}.cls-39{fill:#f5851f;}.cls-40{clip-path:url(#clip-path);}.cls-41{fill:#99999a;}.cls-42{fill:#212121;}.cls-43{fill:#17100c;}.cls-44{fill:#4a4a4a;}.cls-45{fill:#9aae8b;}.cls-46{fill:#7c896f;}.cls-47{fill:#2e5848;}.cls-48{fill:#8a987d;}.cls-49{fill:#221f1f;}.cls-50{fill:#3b3b3b;}.cls-51{fill:#df5b26;}.cls-52{fill:#f48455;}.cls-53{fill:#af4626;}.cls-54{fill:#f6976f;}.cls-55{fill:#141b1e;}.cls-56{fill:#4d4e4e;}.cls-57,.cls-75,.cls-76{mix-blend-mode:screen;}.cls-58{fill:#7d7d7d;}.cls-59{fill:#1f1f1f;}.cls-60{fill:#050809;}.cls-61{fill:#0e1114;}.cls-62{fill:#0a0f11;}.cls-63{fill:#0f161b;}.cls-64,.cls-70{fill:#264252;}.cls-66{fill:#1d2d2a;}.cls-67{fill:#2a373b;}.cls-68{fill:#252e32;}.cls-69{fill:#fccc0a;}.cls-71{fill:#2a2b38;}.cls-72{fill:#a57d52;}.cls-73,.cls-76{fill:#e1ba8d;}.cls-74{fill:#cfa880;}.cls-77{fill:#7c5031;}.cls-78{fill:#c77f4d;}.cls-79{fill:#b27245;}</style><clipPath id="clip-path"><path id="SVGID" class="cls-1" d="M41,32.06c2.18,1.25,3.95.25,4-2.26A8.64,8.64,0,0,0,41,23c-2.18-1.26-4-.25-4,2.25A8.68,8.68,0,0,0,41,32.06Z"/></clipPath></defs><title>warehouse</title><g class="cls-2"><g id="Layer_2" data-name="Layer 2"><g id="Object"><g class="cls-2"><polygon class="cls-3" points="57.25 20.78 57.27 22.93 17.82 45.64 17.8 43.49 57.25 20.78"/><polygon class="cls-4" points="17.8 43.49 17.82 45.64 0.01 35.29 0 33.14 17.8 43.49"/><polygon class="cls-5" points="39.45 10.43 57.25 20.78 17.8 43.49 0 33.14 39.45 10.43"/></g><polygon class="cls-6" points="44.65 15.91 46.11 16.7 42.4 18.82 41 18 44.65 15.91"/><polygon class="cls-6" points="39.54 19.06 41 19.84 37.29 21.97 35.89 21.14 39.54 19.06"/><polygon class="cls-6" points="34.43 22.2 35.89 22.99 32.18 25.11 30.78 24.29 34.43 22.2"/><polygon class="cls-6" points="29.32 25.34 30.78 26.13 27.07 28.25 25.67 27.43 29.32 25.34"/><polygon class="cls-6" points="24.2 28.49 25.67 29.27 21.95 31.4 20.55 30.57 24.2 28.49"/><polygon class="cls-6" points="19.09 31.63 20.55 32.42 16.84 34.54 15.44 33.72 19.09 31.63"/><polygon class="cls-6" points="13.98 34.77 15.44 35.56 11.73 37.68 10.33 36.86 13.98 34.77"/><polygon class="cls-7" points="41.23 24.55 21.34 36.01 11.72 30.46 13.13 29.52 13.36 28.66 29.4 19.48 40.36 23.92 41.23 24.55"/><path class="cls-8" d="M22.53,29.9,25,31.32l0,0,0,0,0,0v0l0,0,0,0,0,0h0l0,.06h0l0,.05v0h0v.06h0l0,.05v.1h0V32h0v.1h0l-2.76-1.6Z"/><path class="cls-8" d="M31.83,24.94l2.57,1.49h0s0,0,0,.06h0v.09h0v.06h0v.1h0l-2.62-1.52Z"/><path class="cls-8" d="M31.83,24.69,34.14,26l0,0,0,0,0,0h0l0,0,0,0,0,0h0l0,.06h0s0,0,0,0v0h0v.06h0l-2.57-1.49Z"/><path class="cls-8" d="M37.29,22.83V22.5l2,1.14h0s0,0,0,.05v.1h0a.09.09,0,0,1,0,.05V24h0Z"/><path class="cls-8" d="M37.29,22.5v-.24l1.68,1,.05,0h0l0,0,0,0,0,0,0,0,0,0h0v0l0,.05v0h0l0,.05h0v.06h0Z"/><path class="cls-9" d="M37.39,25.67l0,0,0,0,0,0,0,0,0,0,0,0,0,0,0,0,0,0,0,0,0,0,0,0,0,0,0,0,0,0,0,0,0,0,0,0a.05.05,0,0,0,0,0l0,0,0,0,0,0,0,0a.66.66,0,0,1-.28-.61,1.69,1.69,0,0,1,0-.23,2.12,2.12,0,0,1,.93-1.41.65.65,0,0,1,.7-.05.05.05,0,0,0,0,0l0,0,0,0,0,0,0,0,0,0,0,0,0,0,0,0,0,0,0,0,0,0,0,0a.05.05,0,0,1,0,0l0,0,0,0,0,0,0,0,0,0,0,0,0,0,0,0,0,0,0,0,0,0a.54.54,0,0,1,.27.4.75.75,0,0,1,0,.21,2.08,2.08,0,0,1-.94,1.64.65.65,0,0,1-.7,0l0,0Z"/><path class="cls-10" d="M38.16,23.49a2.14,2.14,0,0,0-.93,1.41,1.69,1.69,0,0,0,0,.23c0,.6.42.84,1,.54A2.08,2.08,0,0,0,39.11,24a.75.75,0,0,0,0-.21C39,23.38,38.62,23.23,38.16,23.49Z"/><path class="cls-11" d="M38.16,23.78a1.52,1.52,0,0,0-.68,1,1.1,1.1,0,0,0,0,.18c0,.44.32.62.71.4a1.54,1.54,0,0,0,.69-1.21.81.81,0,0,0,0-.16C38.78,23.69,38.5,23.58,38.16,23.78Z"/><path class="cls-12" d="M38.16,23.78a.57.57,0,0,1,.22-.09.35.35,0,0,1,.17.27.59.59,0,0,1,0,.14,1.43,1.43,0,0,1-.65,1.12.52.52,0,0,1-.39.07.66.66,0,0,1-.07-.3,1.1,1.1,0,0,1,0-.18A1.52,1.52,0,0,1,38.16,23.78Z"/><path class="cls-9" d="M32.54,28.47l0,0,0,0,0,0,0,0,0,0,0,0,0,0,0,0,0,0,0,0,0,0,0,0,0,0a.05.05,0,0,0,0,0l0,0,0,0,0,0,0,0,0,0,0,0,0,0,0,0,0,0a.66.66,0,0,1-.29-.62.9.9,0,0,1,0-.23,2.13,2.13,0,0,1,.92-1.41.67.67,0,0,1,.7-.05l0,0,0,0,0,0,0,0,0,0a.05.05,0,0,0,0,0l0,0a.05.05,0,0,1,0,0l0,0,0,0,0,0,0,0,0,0,0,0,0,0,0,0,0,0,0,0,0,0,0,0,0,0,0,0,0,0,0,0,0,0a.52.52,0,0,1,.27.41.66.66,0,0,1,0,.21,2.09,2.09,0,0,1-.95,1.63.65.65,0,0,1-.7.05l0,0Z"/><path class="cls-10" d="M33.3,26.28a2.13,2.13,0,0,0-.92,1.41.93.93,0,0,0,0,.23c0,.6.43.85,1,.54a2.09,2.09,0,0,0,.95-1.63.66.66,0,0,0,0-.21C34.14,26.17,33.76,26,33.3,26.28Z"/><path class="cls-11" d="M33.3,26.57a1.55,1.55,0,0,0-.68,1,.91.91,0,0,0,0,.17c0,.44.31.62.7.4A1.54,1.54,0,0,0,34,27a.78.78,0,0,0,0-.16C33.93,26.49,33.64,26.37,33.3,26.57Z"/><path class="cls-12" d="M33.3,26.57a.84.84,0,0,1,.23-.09.41.41,0,0,1,.17.27.61.61,0,0,1,0,.14A1.45,1.45,0,0,1,33.07,28a.49.49,0,0,1-.39.07.56.56,0,0,1-.07-.3.91.91,0,0,1,0-.17A1.55,1.55,0,0,1,33.3,26.57Z"/><path class="cls-9" d="M23.41,33.75l0,0,0,0,0,0,0,0,0,0,0,0,0,0,0,0,0,0,0,0,0,0,0,0,0,0,0,0,0,0,0,0,0,0,0,0,0,0,0,0a.05.05,0,0,1,0,0l0,0,0,0a.68.68,0,0,1-.29-.61,1.64,1.64,0,0,1,0-.23A2.14,2.14,0,0,1,23.21,31a.65.65,0,0,1,.7-.05l0,0,0,0,0,0,0,0,0,0,0,0,0,0,0,0,0,0,0,0,0,0,0,0,0,0,0,0,0,0,0,0,0,0,0,0,0,0,0,0,0,0,0,0,0,0,0,0,0,0a.54.54,0,0,1,.27.4,1.49,1.49,0,0,1,0,.21,2.08,2.08,0,0,1-.94,1.64.65.65,0,0,1-.7,0l0,0Z"/><path class="cls-10" d="M24.18,31.57A2.14,2.14,0,0,0,23.25,33a1.79,1.79,0,0,0,0,.23c0,.6.43.84,1,.54a2.08,2.08,0,0,0,.94-1.64,1.49,1.49,0,0,0,0-.21C25,31.46,24.64,31.31,24.18,31.57Z"/><path class="cls-11" d="M24.18,31.86a1.52,1.52,0,0,0-.68,1,1.1,1.1,0,0,0,0,.18c0,.44.32.62.7.4a1.55,1.55,0,0,0,.7-1.21.81.81,0,0,0,0-.16C24.8,31.77,24.52,31.66,24.18,31.86Z"/><path class="cls-12" d="M24.18,31.86a.57.57,0,0,1,.22-.09.35.35,0,0,1,.17.27.59.59,0,0,1,0,.14,1.43,1.43,0,0,1-.65,1.12.52.52,0,0,1-.39.07.66.66,0,0,1-.07-.3,1.1,1.1,0,0,1,0-.18A1.52,1.52,0,0,1,24.18,31.86Z"/><polygon class="cls-8" points="21.67 33.78 14.77 29.77 14.77 30.14 21.67 34.15 21.67 33.78"/><path class="cls-13" d="M40.91,23.05v-.38l-1.67,1a1.18,1.18,0,0,1,0,.34Z"/><path class="cls-14" d="M40.91,22.12v.55l-1.67,1a.66.66,0,0,0-.27-.4Z"/><polygon class="cls-15" points="40.39 16.18 40.4 21.59 40.67 21.43 40.65 16.03 40.39 16.18"/><path class="cls-13" d="M36.87,25.38a1.39,1.39,0,0,1,0-.4L34.4,26.43a1.23,1.23,0,0,1,.05.35Z"/><path class="cls-14" d="M34.14,26a.69.69,0,0,1,.26.4L36.91,25a2.57,2.57,0,0,1,.26-.7Z"/><polygon class="cls-15" points="39.11 16.92 39.13 22.32 39.39 22.17 39.38 16.76 39.11 16.92"/><polygon class="cls-15" points="37.84 17.65 37.85 23.06 38.12 22.9 38.1 17.5 37.84 17.65"/><polygon class="cls-15" points="36.56 18.39 36.58 23.79 36.84 23.64 36.83 18.23 36.56 18.39"/><polygon class="cls-15" points="35.29 19.12 35.3 24.53 35.57 24.38 35.55 18.97 35.29 19.12"/><polygon class="cls-15" points="34.01 19.86 34.03 25.27 34.3 25.11 34.28 19.71 34.01 19.86"/><polygon class="cls-16" points="27.34 30.51 20.44 26.5 20.44 26.87 27.34 30.88 27.34 30.51"/><polygon class="cls-16" points="27.34 29.92 20.44 25.91 20.44 26.29 27.34 30.3 27.34 29.92"/><path class="cls-13" d="M32,28.17a1.87,1.87,0,0,1,0-.4l-4.73,2.74v.37Z"/><polygon class="cls-15" points="31.46 21.33 31.48 26.74 31.75 26.58 31.73 21.18 31.46 21.33"/><polygon class="cls-15" points="28.92 22.8 28.93 28.21 29.2 28.05 29.18 22.65 28.92 22.8"/><polygon class="cls-15" points="27.64 23.54 27.66 28.94 27.92 28.79 27.91 23.39 27.64 23.54"/><path class="cls-13" d="M39,23.24a.82.82,0,0,0-.9.05,2.48,2.48,0,0,0-.9,1l-3,1.75a.83.83,0,0,0-.91.06,2.52,2.52,0,0,0-.9,1l-5,2.89,0-6.61,13.58-7.83,0,6.6Zm-11.06.15-.27.15,0,5.4.26-.15v-5.4M35.55,19l-.26.15v5.41l.27-.15,0-5.41m-3.82,2.21-.27.15,0,5.41.27-.16,0-5.4m7.65-4.42-.27.16,0,5.4.26-.15V16.76m-2.55,1.47-.27.16,0,5.4.26-.15V18.23m-7.65,4.42-.26.15v5.41l.27-.15,0-5.41M40.65,16l-.26.15v5.41l.27-.16,0-5.4M33,20.44l-.27.16,0,5.4.26-.15V20.44m1.27-.73-.27.15,0,5.4.26-.15v-5.4M38.1,17.5l-.26.15v5.41l.27-.16,0-5.4m-7.64,4.41-.27.16,0,5.4.26-.15V21.91"/><polygon class="cls-15" points="32.74 20.6 32.76 26 33.02 25.85 33.01 20.44 32.74 20.6"/><path class="cls-13" d="M27,31.05v-.37l-1.8,1a1.21,1.21,0,0,1,.05.34Z"/><path class="cls-14" d="M25,31.32a.69.69,0,0,1,.26.4l1.8-1,.3-.17,4.73-2.74a2.84,2.84,0,0,1,.26-.7l-5,2.89-.29.16Z"/><polygon class="cls-15" points="30.19 22.07 30.21 27.47 30.47 27.32 30.45 21.91 30.19 22.07"/><polygon class="cls-8" points="27.32 23.35 20.42 19.35 20.43 25.95 27.33 29.96 27.32 23.35"/><polygon class="cls-17" points="27.02 22.97 20.12 18.96 20.13 19.51 27.02 23.52 27.02 22.97"/><polygon class="cls-18" points="27.31 22.8 20.41 18.79 20.12 18.96 27.02 22.97 27.31 22.8"/><polygon class="cls-14" points="27.02 22.97 27.02 23.52 27.32 23.35 40.89 15.52 40.88 14.96 27.31 22.8 27.02 22.97"/><polygon class="cls-13" points="40.88 14.48 27.31 22.31 27.31 22.8 40.88 14.96 40.88 14.48"/><polygon class="cls-19" points="40.86 14.4 33.96 10.4 20.39 18.23 27.29 22.24 40.86 14.4"/><polygon class="cls-8" points="27.31 22.31 20.41 18.3 20.41 18.79 27.31 22.8 27.31 22.31"/><polygon class="cls-15" points="24.66 28.87 24.67 29.02 25.31 28.65 25.31 28.5 24.66 28.87"/><path class="cls-13" d="M22.87,33.46a1.87,1.87,0,0,1,0-.4l-1.24.72v.37Z"/><polygon class="cls-18" points="21.67 33.23 14.77 29.22 14.46 29.4 21.35 33.41 21.67 33.23"/><path class="cls-14" d="M21.35,33.41V34l.31-.18,1.24-.72a2.7,2.7,0,0,1,.26-.7l-1.5.87Z"/><polygon class="cls-17" points="21.35 33.41 14.46 29.4 14.46 29.95 21.36 33.96 21.35 33.41"/><polygon class="cls-20" points="26.73 29.96 26.72 25.41 25.55 26.08 25.57 30.63 26.73 29.96"/><path class="cls-20" d="M25.12,30.89a1.1,1.1,0,0,0-1.05.12,3,3,0,0,0-1,1.09L22,32.7V31l.36-1,3.19-1.84v2.49Zm.19-2.39-.64.37V29l.64-.37V28.5"/><path class="cls-13" d="M21.93,30.64l1-2.79v-.26l.17-.45L27,24.87v5.25L25,31.32a.84.84,0,0,0-.91.05,2.63,2.63,0,0,0-.9,1l-1.5.87V31.07l.12-.33Zm0,2.14,1.12-.65a3,3,0,0,1,1-1.06,1,1,0,0,1,1-.12l1.67-1V25.34l-3.49,2L21.93,31v1.79"/><polygon class="cls-21" points="25.51 26.11 23.3 27.39 22.35 29.94 25.52 28.12 25.51 26.11"/><path class="cls-15" d="M26.76,25.34V30L25.1,31a1,1,0,0,0-1,.12,2.93,2.93,0,0,0-1,1.07l-1.12.64V31l1.34-3.64ZM22,32.7,23,32.1a3,3,0,0,1,1-1.09,1.1,1.1,0,0,1,1.05-.12l.4-.23v0l.05,0v0L26.73,30V25.41l-1.17.67v0l0,0v0L23.3,27.39l-.95,2.55,0,0V30L22,31V32.7"/><polygon class="cls-15" points="25.51 26.08 25.51 26.11 25.52 28.12 25.54 28.11 25.54 28.16 25.52 28.17 25.52 30.66 25.52 30.68 25.57 30.66 25.57 30.63 25.55 26.08 25.55 26.06 25.51 26.08"/><polygon class="cls-15" points="22.32 29.96 22.32 30.02 22.33 30.01 25.52 28.17 25.54 28.16 25.54 28.11 25.52 28.12 22.35 29.94 22.32 29.96"/><polygon class="cls-8" points="21.66 31.07 14.76 27.06 14.77 29.22 21.67 33.23 21.66 31.07"/><polygon class="cls-22" points="21.78 30.75 14.88 26.74 14.76 27.06 21.66 31.07 21.78 30.75"/><polygon class="cls-23" points="21.93 30.64 15.03 26.63 14.88 26.74 21.78 30.75 21.93 30.64"/><polygon class="cls-22" points="22.95 27.86 16.06 23.85 15.03 26.63 21.93 30.64 22.95 27.86"/><polygon class="cls-21" points="22.45 28.04 16.27 24.45 15.53 26.45 21.71 30.04 22.45 28.04"/><path class="cls-15" d="M15.52,26.47h0l.75-2v0l6.2,3.6h0l-.74,2v0Zm.76-2-.73,2L21.7,30l.73-2Z"/><polygon class="cls-8" points="22.94 27.59 16.04 23.59 16.06 23.85 22.95 27.86 22.94 27.59"/><polygon class="cls-19" points="27.03 24.87 20.13 20.86 16.21 23.13 23.11 27.14 27.03 24.87"/><polygon class="cls-22" points="23.11 27.14 16.21 23.13 16.04 23.59 22.94 27.59 23.11 27.14"/><polygon class="cls-24" points="23.62 25.52 23.63 26.27 25.56 25.15 25.55 24.39 23.62 25.52"/><polygon class="cls-25" points="23.62 25.52 17.78 22.13 17.79 22.88 23.63 26.27 23.62 25.52"/><polygon class="cls-26" points="25.55 24.39 19.71 21 17.78 22.13 23.62 25.52 25.55 24.39"/><polygon class="cls-27" points="21.52 23.86 22.08 24.19 23.54 25.02 24.04 24.72 24.6 24.39 22.58 23.23 21.52 23.86"/><polygon class="cls-24" points="21.52 23.86 22.08 24.19 22.58 23.89 22.58 23.23 21.52 23.86"/><polygon class="cls-25" points="22.58 23.23 22.58 23.89 24.04 24.72 24.6 24.39 22.58 23.23"/><polygon class="cls-27" points="18.52 21.98 19.09 22.31 20.54 23.14 21.05 22.84 21.61 22.52 19.59 21.36 18.52 21.98"/><polygon class="cls-24" points="18.52 21.98 19.09 22.31 19.59 22.01 19.59 21.36 18.52 21.98"/><polygon class="cls-25" points="19.59 21.36 19.59 22.01 21.05 22.84 21.61 22.52 19.59 21.36"/><g class="cls-28"><polygon class="cls-29" points="25.51 26.11 25.51 26.79 25.08 26.36 25.51 26.11"/><polygon class="cls-29" points="24.24 26.84 24.55 26.66 25.51 27.63 25.52 28.12 25.52 28.12 24.24 26.84"/><polygon class="cls-29" points="23.27 27.46 23.3 27.39 23.5 27.27 24.77 28.55 24.5 28.7 23.27 27.46"/><polygon class="cls-29" points="22.86 28.58 23.53 29.26 23.06 29.53 22.66 29.13 22.86 28.58"/><polygon class="cls-29" points="15.93 25.36 16.16 24.76 16.16 26.81 15.93 26.69 15.93 25.36"/><polygon class="cls-29" points="20.23 26.74 20.65 26.99 20.65 29.43 20.23 29.18 20.23 26.74"/><polygon class="cls-29" points="18.49 25.73 19.36 26.24 19.36 28.68 18.49 28.17 18.49 25.73"/><polygon class="cls-29" points="17.26 25.02 17.5 25.16 17.5 27.59 17.26 27.46 17.26 25.02"/></g><g class="cls-2"><path class="cls-30" d="M20.85,30.93a.76.76,0,0,1,.34.6c0,.22-.15.3-.34.2a.74.74,0,0,1-.34-.6c0-.22.15-.31.34-.2"/><path class="cls-17" d="M20.85,31.73a.74.74,0,0,1-.34-.6c0-.22.15-.31.34-.2a.76.76,0,0,1,.34.6c0,.22-.15.3-.34.2m0-.83c-.2-.11-.37,0-.37.22a.78.78,0,0,0,.37.63c.2.12.37,0,.37-.21a.84.84,0,0,0-.37-.64"/><path class="cls-30" d="M15.4,27.79a.77.77,0,0,1,.35.59c0,.22-.16.31-.35.2a.76.76,0,0,1-.34-.59c0-.22.15-.31.34-.2"/><path class="cls-17" d="M15.4,28.58a.76.76,0,0,1-.34-.59c0-.22.15-.31.34-.2a.77.77,0,0,1,.35.59c0,.22-.16.31-.35.2m0-.82A.23.23,0,0,0,15,28a.82.82,0,0,0,.37.64c.21.12.37,0,.37-.21a.8.8,0,0,0-.37-.64"/><polyline class="cls-30" points="20.67 31.83 21.02 32.03 21.02 32.24 20.67 32.04 20.67 31.83"/><path class="cls-17" d="M21,32.24l-.35-.2v-.21L21,32v.21m-.37-.46v.27l.41.24V32l-.4-.24"/><polyline class="cls-30" points="15.22 28.68 15.58 28.89 15.58 29.1 15.22 28.89 15.22 28.68"/><path class="cls-17" d="M15.58,29.1l-.36-.21v-.21l.36.21v.21m-.38-.46v.27l.4.23v-.27l-.4-.23"/><polyline class="cls-30" points="16.2 29.39 20.04 31.61 20.04 32.03 16.2 29.81 16.2 29.39"/><path class="cls-17" d="M20,32,16.2,29.81v-.42L20,31.61V32m-3.86-2.68v.48l3.89,2.24v-.48l-3.89-2.24"/><path class="cls-22" d="M16.48,28.55l3.29,1.89a.12.12,0,0,1,.05.1s0,.05-.05,0l-3.29-1.9a.12.12,0,0,1-.05-.09s0,0,.05,0"/><path class="cls-22" d="M16.48,28.76l3.29,1.9a.12.12,0,0,1,.05.09s0,.05-.05,0l-3.29-1.9a.09.09,0,0,1-.05-.09s0-.05.05,0"/><path class="cls-22" d="M16.48,29l3.29,1.89a.12.12,0,0,1,.05.1s0,0-.05,0l-3.29-1.9a.12.12,0,0,1-.05-.09s0-.05.05,0"/></g><g class="cls-2"><polygon class="cls-3" points="96.48 43.6 96.5 45.75 43.03 76.62 43.02 74.47 96.48 43.6"/><polygon class="cls-4" points="43.37 74.47 43.38 76.62 4.05 53.76 4.04 51.61 43.37 74.47"/><polygon class="cls-5" points="57.15 20.74 96.48 43.6 43.02 74.47 3.69 51.61 57.15 20.74"/></g><polygon class="cls-6" points="36.26 51.31 37.72 52.1 34.01 54.22 32.61 53.4 36.26 51.31"/><polygon class="cls-6" points="31.15 54.45 32.61 55.24 28.9 57.36 27.5 56.54 31.15 54.45"/><polygon class="cls-6" points="26.04 57.59 27.5 58.38 23.79 60.51 22.39 59.68 26.04 57.59"/><g class="cls-2"><polygon class="cls-3" points="114.26 53.93 114.27 56.08 74.82 78.79 74.81 76.64 114.26 53.93"/><polygon class="cls-4" points="74.81 76.64 74.82 78.79 57.02 68.44 57.01 66.29 74.81 76.64"/><polygon class="cls-5" points="96.46 43.58 114.26 53.93 74.81 76.64 57.01 66.29 96.46 43.58"/></g><g class="cls-2"><polygon class="cls-31" points="27.22 42.08 26.48 41.65 56.48 24.33 57.22 24.76 27.22 42.08"/><polygon class="cls-32" points="57.22 24.76 57.23 27.39 27.23 44.71 27.22 42.08 57.22 24.76"/></g><polygon class="cls-33" points="25.04 19.84 41.01 17.46 56.92 38.24 53.89 36.49 53.82 57.52 28 42.62 27.82 21.45 25.04 19.84"/><g class="cls-2"><polygon class="cls-34" points="45.57 54.04 45.57 41.34 34.35 34.8 34.35 47.56 45.57 54.04"/></g><polygon class="cls-35" points="34.35 34.75 33.83 34.45 33.83 45.83 34.35 45.53 34.35 34.75"/><g class="cls-36"><g class="cls-2"><polygon class="cls-34" points="45.57 41.6 45.57 41.49 34.35 34.94 34.35 35.12 45.57 41.6"/></g><g class="cls-2"><polygon class="cls-34" points="45.57 42.63 45.57 42.51 34.35 35.96 34.35 36.15 45.57 42.63"/></g><g class="cls-2"><polygon class="cls-34" points="45.57 43.65 45.57 43.54 34.35 36.99 34.35 37.17 45.57 43.65"/></g><g class="cls-2"><polygon class="cls-34" points="45.57 44.68 45.57 44.56 34.35 38.01 34.35 38.2 45.57 44.68"/></g><g class="cls-2"><polygon class="cls-34" points="45.57 45.7 45.57 45.59 34.35 39.03 34.35 39.22 45.57 45.7"/></g><g class="cls-2"><polygon class="cls-34" points="45.57 46.73 45.57 46.61 34.35 40.06 34.35 40.25 45.57 46.73"/></g><g class="cls-2"><polygon class="cls-34" points="45.57 47.75 45.57 47.63 34.35 41.09 34.35 41.27 45.57 47.75"/></g><g class="cls-2"><polygon class="cls-34" points="45.57 48.77 45.57 48.66 34.35 42.11 34.35 42.3 45.57 48.77"/></g><g class="cls-2"><polygon class="cls-34" points="45.57 49.8 45.57 49.69 34.35 43.13 34.35 43.32 45.57 49.8"/></g><g class="cls-2"><polygon class="cls-34" points="45.57 50.82 45.57 50.71 34.35 44.16 34.35 44.34 45.57 50.82"/></g><g class="cls-2"><polygon class="cls-34" points="45.57 51.85 45.57 51.73 34.35 45.18 34.35 45.37 45.57 51.85"/></g><g class="cls-2"><polygon class="cls-34" points="45.57 52.87 45.57 52.76 34.35 46.21 34.35 46.4 45.57 52.87"/></g><g class="cls-2"><polygon class="cls-34" points="45.57 53.9 45.57 53.78 34.35 47.23 34.35 47.42 45.57 53.9"/></g></g><polygon class="cls-37" points="53.82 59.39 83.87 41.93 83.93 19.03 53.89 36.49 53.82 59.39"/><polygon class="cls-4" points="41.01 17.46 71.06 0 55.08 2.38 25.04 19.84 41.01 17.46"/><polygon class="cls-5" points="56.92 38.24 86.96 20.78 71.06 0 41.01 17.46 56.92 38.24"/><g class="cls-2"><polygon class="cls-31" points="54.56 57.87 53.82 57.44 83.82 40.12 84.57 40.55 54.56 57.87"/><polygon class="cls-38" points="84.57 40.55 84.57 43.18 54.57 60.51 54.56 57.87 84.57 40.55"/></g><g class="cls-2"><polygon class="cls-35" points="33.62 48.42 34.37 47.99 34.37 45.36 33.63 45.79 33.62 48.42"/><polygon class="cls-31" points="33.63 45.79 34.37 45.36 27.93 41.6 27.19 42.03 33.63 45.79"/><polygon class="cls-39" points="27.19 42.06 27.19 42.03 33.63 45.79 33.62 48.42 27.23 44.69 27.23 44.71 26.48 44.28 26.48 41.65 27.19 42.06"/></g><g class="cls-2"><polygon class="cls-31" points="53.83 57.44 54.57 57.01 45.57 51.8 44.83 52.23 53.83 57.44"/><polygon class="cls-39" points="44.82 54.86 44.83 52.23 53.83 57.44 53.83 57.45 54.56 57.87 54.57 60.51 53.89 60.11 53.89 60.11 44.82 54.86"/></g><g class="cls-40"><path class="cls-32" d="M41,32.06c2.18,1.25,3.95.25,4-2.26A8.64,8.64,0,0,0,41,23c-2.18-1.26-4-.25-4,2.25A8.68,8.68,0,0,0,41,32.06Z"/><path class="cls-35" d="M37.09,26a1.36,1.36,0,0,1,0-.2s0-.09,0-.14,0-.29,0-.44a2.73,2.73,0,0,1,1.15-2.52l.72-.42a2.73,2.73,0,0,0-1.15,2.52c0,.15,0,.29,0,.44s0,.09,0,.14l0,.28.06.32a1.55,1.55,0,0,0,0,.21c0,.07,0,.14,0,.2a2.29,2.29,0,0,0,.08.28c0,.06,0,.11,0,.17s.07.21.11.31,0,.09,0,.13.11.29.17.43l0,.06.18.38.06.11.2.36,0,.07c.08.14.17.27.25.4l.08.12c.06.09.13.18.19.28l.11.15.18.22.15.19.15.17.27.28.16.17.14.12.22.2.14.11.24.18.12.09c.13.08.25.17.38.24l.36.19.09,0a2.92,2.92,0,0,0,.34.13h0l.29.08.16,0,.21,0h.43a1.36,1.36,0,0,0,.29,0l.07,0,.22-.06.06,0,.26-.13-.72.42,0,0-.2.09,0,0-.07,0-.1,0-.11,0-.07,0h0l-.24,0h-.55l-.1,0-.16,0-.09,0a1.52,1.52,0,0,1-.2-.06h0l-.24-.1-.1,0-.09,0L41,32.06a3.87,3.87,0,0,1-.37-.24l-.12-.09-.25-.18-.13-.11-.23-.2-.13-.12L39.65,31,39.56,31l-.26-.28-.08-.09-.07-.08L39,30.31l-.1-.12-.08-.1-.11-.15a.39.39,0,0,0-.08-.1,1.74,1.74,0,0,1-.11-.18l-.08-.12,0-.05-.21-.33v0l0-.07L38,28.83,38,28.72l-.06-.12a.54.54,0,0,1,0-.11c-.05-.09-.09-.18-.13-.27l0,0v0c0-.12-.1-.23-.14-.35l0-.07s0-.08,0-.13,0-.11-.07-.17a.57.57,0,0,0,0-.14c0-.06,0-.11,0-.16l0-.11a7.42,7.42,0,0,0-.09-.38.14.14,0,0,1,0-.07l0-.14c0-.11,0-.21,0-.32S37.09,26.05,37.09,26Z"/></g><polygon class="cls-41" points="58.49 37.38 42.63 16.66 26.72 19.02 26.69 18.78 42.73 16.39 42.78 16.45 58.69 37.23 58.49 37.38"/><polygon class="cls-41" points="60.01 36.51 44.14 15.78 28.24 18.15 28.2 17.9 44.25 15.51 44.3 15.57 60.2 36.36 60.01 36.51"/><polygon class="cls-41" points="61.52 35.63 45.66 14.91 29.76 17.27 29.72 17.02 45.77 14.64 45.81 14.7 61.72 35.48 61.52 35.63"/><polygon class="cls-41" points="63.04 34.76 47.17 14.03 31.27 16.4 31.23 16.15 47.28 13.76 47.33 13.82 63.24 34.6 63.04 34.76"/><polygon class="cls-41" points="64.55 33.88 48.69 13.15 32.79 15.52 32.75 15.27 48.8 12.89 48.85 12.94 64.75 33.73 64.55 33.88"/><polygon class="cls-41" points="66.07 33.01 50.21 12.28 34.31 14.65 34.27 14.4 50.32 12.01 50.36 12.07 66.27 32.85 66.07 33.01"/><polygon class="cls-41" points="67.59 32.13 51.72 11.4 35.82 13.77 35.78 13.52 51.83 11.13 51.88 11.19 67.78 31.98 67.59 32.13"/><polygon class="cls-41" points="69.1 31.25 53.24 10.53 37.34 12.89 37.3 12.65 53.35 10.26 53.39 10.32 69.3 31.1 69.1 31.25"/><polygon class="cls-41" points="70.62 30.38 54.76 9.65 38.85 12.02 38.82 11.77 54.87 9.38 54.91 9.44 70.82 30.23 70.62 30.38"/><polygon class="cls-41" points="72.14 29.5 56.27 8.78 40.37 11.14 40.33 10.89 56.38 8.51 56.43 8.57 72.33 29.35 72.14 29.5"/><polygon class="cls-41" points="73.65 28.63 57.79 7.9 41.89 10.27 41.85 10.02 57.9 7.63 57.94 7.69 73.85 28.47 73.65 28.63"/><polygon class="cls-41" points="75.17 27.75 59.3 7.02 43.4 9.39 43.37 9.14 59.41 6.75 59.46 6.81 75.37 27.6 75.17 27.75"/><polygon class="cls-41" points="76.68 26.87 60.82 6.15 44.92 8.52 44.88 8.27 60.93 5.88 60.97 5.94 76.88 26.72 76.68 26.87"/><polygon class="cls-41" points="78.2 26 62.34 5.27 46.43 7.64 46.4 7.39 62.45 5 62.49 5.06 78.4 25.85 78.2 26"/><polygon class="cls-41" points="79.72 25.12 63.85 4.4 47.95 6.76 47.91 6.51 63.96 4.13 64.01 4.19 79.92 24.97 79.72 25.12"/><polygon class="cls-41" points="81.23 24.25 65.37 3.52 49.47 5.89 49.43 5.64 65.48 3.25 65.52 3.31 81.43 24.09 81.23 24.25"/><polygon class="cls-41" points="82.75 23.37 66.89 2.65 50.98 5.01 50.95 4.76 67 2.38 67.04 2.44 82.95 23.22 82.75 23.37"/><polygon class="cls-41" points="84.27 22.5 68.4 1.77 52.5 4.14 52.46 3.89 68.51 1.5 68.56 1.56 84.46 22.34 84.27 22.5"/><polygon class="cls-41" points="85.78 21.62 69.92 0.9 54.02 3.26 53.98 3.01 70.03 0.63 70.07 0.68 85.98 21.47 85.78 21.62"/><polygon class="cls-42" points="56.92 38.24 53.89 36.49 41.01 19.5 27.82 21.45 25.04 19.84 41.01 17.46 56.92 38.24"/><polygon class="cls-6" points="98.97 46.99 100.44 47.78 96.72 49.9 95.32 49.08 98.97 46.99"/><polygon class="cls-6" points="93.86 50.13 95.32 50.92 91.61 53.04 90.21 52.22 93.86 50.13"/><polygon class="cls-6" points="88.75 53.28 90.21 54.06 86.5 56.19 85.1 55.36 88.75 53.28"/><polygon class="cls-6" points="83.64 56.42 85.1 57.21 81.39 59.33 79.99 58.51 83.64 56.42"/><polygon class="cls-6" points="78.53 59.56 79.99 60.35 76.28 62.47 74.88 61.65 78.53 59.56"/><polygon class="cls-6" points="73.42 62.7 74.88 63.49 71.16 65.61 69.77 64.79 73.42 62.7"/><polygon class="cls-6" points="68.3 65.85 69.77 66.64 66.05 68.76 64.65 67.94 68.3 65.85"/><path class="cls-7" d="M100.45,55,80.68,63.84l-8-4.64c.21-.45.43-.91.64-1.37L90.17,49Z"/><path class="cls-43" d="M95.1,52.48l2.15.56a2.45,2.45,0,0,0,0,.83c0,.11,0,.18,0,.2a10.88,10.88,0,0,1,.31,2,1.79,1.79,0,0,1-.51-.3c-.2-.18-.25-.3-.39-.43a1.31,1.31,0,0,0-.81-.32Z"/><polygon class="cls-44" points="86.74 58.69 79.77 54.63 91.08 48.07 98.06 52.12 86.74 58.69"/><path class="cls-9" d="M96.09,53.88a1.31,1.31,0,0,0-.86-.43c-.67,0-1.15.58-1.42.92-.45.57-1.28,2-.63,2.86a1.55,1.55,0,0,0,1.3.54,2,2,0,0,0,1.38-.87,3.23,3.23,0,0,0,.7-1.74A1.64,1.64,0,0,0,96.09,53.88Z"/><path class="cls-43" d="M93.66,56.73c0,.93.66,1.3,1.47.84A3.23,3.23,0,0,0,96.59,55c0-.92-.66-1.3-1.47-.83A3.19,3.19,0,0,0,93.66,56.73Zm.08,0a3,3,0,0,1,1.38-2.39c.77-.45,1.39-.09,1.39.79a3.06,3.06,0,0,1-1.38,2.39C94.36,57.92,93.74,57.57,93.74,56.69Z"/><path class="cls-43" d="M95.12,54.27a3.12,3.12,0,0,0-1.41,2.44c0,.9.64,1.26,1.42.81a3.11,3.11,0,0,0,1.41-2.44C96.53,54.19,95.9,53.82,95.12,54.27Z"/><path class="cls-45" d="M95.12,54.77a2.16,2.16,0,0,0-1,1.69c0,.63.44.88,1,.57a2.19,2.19,0,0,0,1-1.7C96.11,54.7,95.66,54.45,95.12,54.77Z"/><path class="cls-46" d="M95.12,55a1.79,1.79,0,0,0-.81,1.4c0,.52.37.73.82.47a1.82,1.82,0,0,0,.81-1.4C95.93,54.91,95.57,54.71,95.12,55Z"/><path class="cls-45" d="M95.12,55.37a1,1,0,0,0-.45.79c0,.29.2.41.46.26a1,1,0,0,0,.45-.79C95.58,55.34,95.38,55.23,95.12,55.37Z"/><polygon class="cls-47" points="95.26 55.58 95.26 55.57 95.26 55.57 95.26 55.57 95.26 55.57 95.26 55.56 95.26 55.56 95.26 55.56 95.26 55.56 95.26 55.56 95.27 55.55 95.27 55.55 95.27 55.55 95.27 55.55 95.27 55.54 95.27 55.54 95.27 55.54 95.27 55.54 95.27 55.53 95.27 55.53 95.27 55.53 95.27 55.53 95.27 55.53 95.27 55.52 95.28 55.52 95.28 55.52 95.28 55.52 95.28 55.52 95.28 55.51 95.28 55.51 95.28 55.51 95.28 55.51 95.28 55.5 95.28 55.5 95.29 55.5 95.29 55.5 95.29 55.49 95.29 55.49 95.3 55.48 95.3 55.48 95.3 55.48 95.3 55.48 95.3 55.48 95.3 55.48 95.3 55.48 95.31 55.47 95.31 55.47 95.31 55.47 95.31 55.47 95.31 55.47 95.32 55.46 95.32 55.46 95.32 55.46 95.32 55.46 95.32 55.46 95.32 55.45 95.33 55.45 95.33 55.45 95.33 55.45 95.33 55.45 95.33 55.45 95.33 55.45 95.34 55.45 95.34 55.44 95.34 55.44 95.34 55.44 95.35 55.44 95.35 55.44 95.35 55.44 95.35 55.44 95.35 55.44 95.36 55.44 95.36 55.44 95.36 55.44 95.36 55.44 95.36 55.43 95.36 55.43 95.36 55.43 95.36 55.43 95.37 55.43 95.37 55.43 95.37 55.43 95.37 55.43 95.38 55.43 95.38 55.43 95.38 55.43 95.38 55.43 95.39 55.43 95.39 55.43 95.39 55.43 95.39 55.44 95.39 55.44 95.4 55.44 95.42 55.45 95.42 55.45 95.41 55.45 95.41 55.45 95.41 55.45 95.41 55.45 95.4 55.45 95.4 55.45 95.39 55.45 95.39 55.45 95.39 55.45 95.38 55.45 95.38 55.45 95.38 55.45 95.37 55.46 95.36 55.46 95.36 55.47 95.35 55.47 95.35 55.47 95.34 55.48 95.34 55.48 95.34 55.48 95.34 55.48 95.33 55.49 95.33 55.49 95.32 55.5 95.32 55.5 95.32 55.5 95.32 55.51 95.32 55.51 95.31 55.52 95.31 55.52 95.31 55.53 95.31 55.53 95.3 55.54 95.3 55.54 95.3 55.55 95.3 55.55 95.3 55.56 95.3 55.56 95.29 55.57 95.29 55.57 95.29 55.58 95.29 55.58 95.29 55.59 95.29 55.59 95.29 55.59 95.29 55.6 95.29 55.6 95.29 55.61 95.29 55.61 95.29 55.62 95.29 55.62 95.3 55.63 95.3 55.63 95.3 55.63 95.3 55.63 95.3 55.64 95.3 55.64 95.31 55.64 95.31 55.64 95.31 55.65 95.28 55.63 95.28 55.63 95.28 55.63 95.28 55.62 95.28 55.62 95.27 55.62 95.27 55.62 95.27 55.62 95.27 55.61 95.27 55.61 95.27 55.61 95.27 55.61 95.27 55.6 95.27 55.6 95.27 55.6 95.26 55.6 95.26 55.6 95.26 55.59 95.26 55.59 95.26 55.59 95.26 55.59 95.26 55.59 95.26 55.59 95.26 55.58 95.26 55.58 95.26 55.58 95.26 55.58"/><path class="cls-46" d="M95.37,55.46a.18.18,0,0,0-.08.14,0,0,0,0,0,.08,0,.2.2,0,0,0,.08-.14A0,0,0,0,0,95.37,55.46Z"/><polygon class="cls-47" points="94.83 55.84 94.83 55.84 94.83 55.84 94.83 55.84 94.83 55.84 94.83 55.83 94.83 55.83 94.83 55.83 94.83 55.83 94.83 55.83 94.83 55.82 94.83 55.82 94.83 55.82 94.83 55.82 94.83 55.81 94.83 55.81 94.83 55.81 94.83 55.81 94.83 55.8 94.83 55.8 94.83 55.8 94.83 55.8 94.84 55.8 94.84 55.79 94.84 55.79 94.84 55.79 94.84 55.79 94.84 55.78 94.84 55.78 94.84 55.78 94.84 55.78 94.85 55.78 94.85 55.77 94.85 55.77 94.85 55.77 94.85 55.77 94.86 55.76 94.86 55.76 94.86 55.75 94.86 55.75 94.86 55.75 94.86 55.75 94.87 55.74 94.87 55.74 94.87 55.74 94.87 55.74 94.87 55.74 94.87 55.74 94.87 55.74 94.88 55.73 94.88 55.73 94.88 55.73 94.88 55.73 94.88 55.73 94.89 55.73 94.89 55.72 94.89 55.72 94.89 55.72 94.89 55.72 94.9 55.72 94.9 55.72 94.9 55.72 94.9 55.72 94.9 55.71 94.9 55.71 94.91 55.71 94.91 55.71 94.91 55.71 94.91 55.71 94.91 55.71 94.92 55.71 94.92 55.7 94.92 55.7 94.92 55.7 94.92 55.7 94.93 55.7 94.93 55.7 94.93 55.7 94.93 55.7 94.93 55.7 94.94 55.7 94.94 55.7 94.94 55.7 94.94 55.7 94.94 55.7 94.94 55.7 94.94 55.7 94.95 55.7 94.95 55.7 94.95 55.7 94.95 55.7 94.95 55.7 94.96 55.71 94.99 55.72 94.98 55.72 94.98 55.72 94.98 55.72 94.97 55.72 94.97 55.72 94.96 55.72 94.96 55.72 94.96 55.72 94.95 55.72 94.95 55.72 94.95 55.72 94.94 55.72 94.94 55.72 94.93 55.73 94.92 55.73 94.92 55.73 94.92 55.74 94.92 55.74 94.91 55.74 94.91 55.75 94.9 55.75 94.9 55.75 94.89 55.76 94.89 55.76 94.89 55.77 94.89 55.77 94.89 55.77 94.88 55.78 94.88 55.78 94.88 55.79 94.88 55.79 94.87 55.8 94.87 55.8 94.87 55.81 94.87 55.81 94.86 55.81 94.86 55.82 94.86 55.83 94.86 55.83 94.86 55.84 94.86 55.84 94.86 55.84 94.86 55.84 94.85 55.85 94.85 55.85 94.85 55.86 94.85 55.87 94.85 55.87 94.86 55.88 94.86 55.88 94.86 55.89 94.86 55.89 94.86 55.9 94.86 55.9 94.86 55.9 94.86 55.9 94.87 55.91 94.87 55.91 94.87 55.91 94.87 55.91 94.88 55.91 94.85 55.9 94.84 55.9 94.84 55.89 94.84 55.89 94.84 55.89 94.84 55.89 94.83 55.88 94.83 55.88 94.83 55.88 94.83 55.88 94.83 55.88 94.83 55.88 94.83 55.87 94.83 55.87 94.83 55.87 94.83 55.87 94.83 55.87 94.83 55.86 94.83 55.86 94.83 55.86 94.83 55.86 94.83 55.86 94.83 55.85 94.83 55.85 94.83 55.85 94.83 55.85 94.83 55.84"/><path class="cls-46" d="M94.93,55.73a.17.17,0,0,0-.08.13.05.05,0,0,0,.08,0,.17.17,0,0,0,.08-.14C95,55.72,95,55.7,94.93,55.73Z"/><polygon class="cls-47" points="95.24 56.02 95.24 56.01 95.24 56.01 95.24 56.01 95.24 56.01 95.24 56 95.24 56 95.24 56 95.24 56 95.24 56 95.24 55.99 95.24 55.99 95.24 55.99 95.24 55.99 95.24 55.98 95.24 55.98 95.24 55.98 95.24 55.98 95.25 55.98 95.25 55.97 95.25 55.97 95.25 55.97 95.25 55.97 95.25 55.96 95.25 55.96 95.25 55.96 95.25 55.96 95.25 55.96 95.25 55.95 95.25 55.95 95.26 55.95 95.26 55.95 95.26 55.94 95.26 55.94 95.26 55.94 95.26 55.94 95.27 55.93 95.27 55.93 95.27 55.92 95.27 55.92 95.27 55.92 95.28 55.92 95.28 55.91 95.28 55.91 95.28 55.91 95.28 55.91 95.28 55.91 95.28 55.91 95.29 55.91 95.29 55.91 95.29 55.9 95.29 55.9 95.29 55.9 95.3 55.9 95.3 55.9 95.3 55.89 95.3 55.89 95.3 55.89 95.31 55.89 95.31 55.89 95.31 55.89 95.31 55.89 95.31 55.88 95.31 55.88 95.32 55.88 95.32 55.88 95.32 55.88 95.32 55.88 95.32 55.88 95.33 55.88 95.33 55.88 95.33 55.88 95.33 55.88 95.33 55.88 95.33 55.88 95.34 55.87 95.34 55.87 95.34 55.87 95.34 55.87 95.34 55.87 95.35 55.87 95.35 55.87 95.35 55.87 95.35 55.87 95.35 55.87 95.35 55.87 95.36 55.87 95.36 55.87 95.36 55.87 95.36 55.87 95.37 55.87 95.37 55.87 95.37 55.88 95.4 55.89 95.39 55.89 95.39 55.89 95.39 55.89 95.38 55.89 95.38 55.89 95.38 55.89 95.37 55.89 95.37 55.89 95.37 55.89 95.36 55.89 95.36 55.89 95.35 55.9 95.35 55.9 95.34 55.9 95.34 55.9 95.34 55.9 95.33 55.91 95.33 55.91 95.32 55.92 95.32 55.92 95.31 55.92 95.31 55.92 95.31 55.93 95.31 55.93 95.3 55.94 95.3 55.94 95.3 55.94 95.3 55.95 95.29 55.95 95.29 55.96 95.29 55.96 95.28 55.97 95.28 55.97 95.28 55.98 95.28 55.98 95.28 55.99 95.28 55.99 95.27 56 95.27 56 95.27 56.01 95.27 56.01 95.27 56.02 95.27 56.02 95.27 56.02 95.27 56.03 95.27 56.03 95.27 56.04 95.27 56.04 95.27 56.05 95.27 56.05 95.27 56.06 95.27 56.06 95.27 56.07 95.27 56.07 95.28 56.07 95.28 56.07 95.28 56.08 95.28 56.08 95.28 56.08 95.28 56.08 95.29 56.09 95.26 56.07 95.26 56.07 95.25 56.06 95.25 56.06 95.25 56.06 95.25 56.06 95.25 56.06 95.25 56.06 95.24 56.05 95.24 56.05 95.24 56.05 95.24 56.05 95.24 56.04 95.24 56.04 95.24 56.04 95.24 56.04 95.24 56.04 95.24 56.03 95.24 56.03 95.24 56.03 95.24 56.03 95.24 56.03 95.24 56.03 95.24 56.02 95.24 56.02 95.24 56.02 95.24 56.02"/><path class="cls-46" d="M95.34,55.9a.16.16,0,0,0-.07.13s0,.07.07,0a.17.17,0,0,0,.08-.14S95.39,55.87,95.34,55.9Z"/><polygon class="cls-47" points="94.8 56.28 94.8 56.28 94.8 56.28 94.8 56.28 94.8 56.28 94.8 56.27 94.8 56.27 94.8 56.27 94.8 56.27 94.8 56.27 94.8 56.26 94.81 56.26 94.81 56.26 94.81 56.26 94.81 56.25 94.81 56.25 94.81 56.25 94.81 56.25 94.81 56.24 94.81 56.24 94.81 56.24 94.81 56.24 94.81 56.24 94.81 56.23 94.81 56.23 94.81 56.23 94.81 56.23 94.82 56.23 94.82 56.22 94.82 56.22 94.82 56.22 94.82 56.22 94.82 56.21 94.83 56.21 94.83 56.21 94.83 56.21 94.83 56.2 94.83 56.2 94.84 56.19 94.84 56.19 94.84 56.19 94.84 56.19 94.84 56.18 94.84 56.18 94.84 56.18 94.84 56.18 94.85 56.18 94.85 56.18 94.85 56.18 94.85 56.17 94.86 56.17 94.86 56.17 94.86 56.17 94.86 56.17 94.86 56.16 94.86 56.16 94.86 56.16 94.87 56.16 94.87 56.16 94.87 56.16 94.87 56.16 94.87 56.16 94.88 56.15 94.88 56.15 94.88 56.15 94.88 56.15 94.89 56.15 94.89 56.15 94.89 56.15 94.89 56.15 94.89 56.15 94.89 56.15 94.9 56.15 94.9 56.14 94.9 56.14 94.9 56.14 94.9 56.14 94.9 56.14 94.91 56.14 94.91 56.14 94.91 56.14 94.91 56.14 94.91 56.14 94.92 56.14 94.92 56.14 94.92 56.14 94.92 56.14 94.92 56.14 94.92 56.14 94.92 56.14 94.93 56.14 94.93 56.14 94.94 56.15 94.96 56.16 94.96 56.16 94.95 56.16 94.95 56.16 94.95 56.16 94.94 56.16 94.94 56.16 94.94 56.16 94.93 56.16 94.93 56.16 94.92 56.16 94.92 56.16 94.92 56.16 94.92 56.16 94.91 56.17 94.9 56.17 94.9 56.17 94.89 56.18 94.89 56.18 94.89 56.19 94.88 56.19 94.88 56.19 94.88 56.19 94.87 56.2 94.87 56.2 94.86 56.21 94.86 56.21 94.86 56.21 94.86 56.22 94.86 56.22 94.85 56.23 94.85 56.23 94.85 56.24 94.85 56.24 94.84 56.24 94.84 56.25 94.84 56.26 94.84 56.26 94.84 56.27 94.83 56.27 94.83 56.27 94.83 56.27 94.83 56.28 94.83 56.28 94.83 56.29 94.83 56.3 94.83 56.3 94.83 56.31 94.83 56.31 94.83 56.32 94.83 56.32 94.83 56.33 94.83 56.33 94.83 56.34 94.84 56.34 94.84 56.34 94.84 56.34 94.84 56.35 94.84 56.35 94.85 56.35 94.85 56.35 94.85 56.35 94.82 56.34 94.82 56.34 94.82 56.33 94.82 56.33 94.81 56.33 94.81 56.33 94.81 56.33 94.81 56.33 94.81 56.32 94.81 56.32 94.81 56.32 94.81 56.31 94.81 56.31 94.81 56.31 94.8 56.31 94.8 56.31 94.8 56.3 94.8 56.3 94.8 56.3 94.8 56.3 94.8 56.3 94.8 56.3 94.8 56.3 94.8 56.29 94.8 56.29 94.8 56.29 94.8 56.28"/><path class="cls-46" d="M94.91,56.17a.14.14,0,0,0-.08.13.05.05,0,0,0,.08.05.2.2,0,0,0,.08-.14A0,0,0,0,0,94.91,56.17Z"/><path class="cls-48" d="M94.6,56.2c0,.34.23.47.53.3a1.15,1.15,0,0,0,.52-.91c0-.33-.24-.47-.53-.3A1.14,1.14,0,0,0,94.6,56.2Zm.07,0a1,1,0,0,1,.45-.79c.26-.14.46,0,.46.26a1,1,0,0,1-.45.79C94.87,56.57,94.67,56.45,94.67,56.16Z"/><path class="cls-49" d="M93.78,56.66c0,.86.61,1.2,1.35.77a3,3,0,0,0,1.34-2.32c0-.85-.61-1.2-1.35-.77A3,3,0,0,0,93.78,56.66Zm.07,0a2.83,2.83,0,0,1,1.27-2.2c.7-.4,1.28-.08,1.28.73a2.8,2.8,0,0,1-1.27,2.2C94.42,57.76,93.85,57.43,93.85,56.62Z"/><path class="cls-49" d="M93.81,56.65c0,.83.6,1.16,1.32.74a2.89,2.89,0,0,0,1.31-2.26c0-.83-.6-1.17-1.32-.75A2.9,2.9,0,0,0,93.81,56.65Zm.07,0a2.74,2.74,0,0,1,1.24-2.15c.69-.4,1.25-.08,1.25.71a2.77,2.77,0,0,1-1.24,2.15C94.44,57.71,93.88,57.39,93.88,56.61Z"/><path class="cls-49" d="M93.74,56.69c0,.88.63,1.23,1.39.79a3.06,3.06,0,0,0,1.38-2.39c0-.88-.63-1.23-1.39-.79A3.06,3.06,0,0,0,93.74,56.69Zm.07,0a2.9,2.9,0,0,1,1.31-2.27c.73-.42,1.31-.08,1.32.75a2.92,2.92,0,0,1-1.31,2.27C94.4,57.81,93.81,57.48,93.81,56.65Z"/><path class="cls-49" d="M93.71,56.7c0,.9.64,1.26,1.42.81a3.11,3.11,0,0,0,1.41-2.44c0-.89-.64-1.25-1.42-.8A3.11,3.11,0,0,0,93.71,56.7Zm.08,0a2.92,2.92,0,0,1,1.33-2.31c.74-.43,1.34-.08,1.34.77a2.92,2.92,0,0,1-1.33,2.31C94.39,57.85,93.79,57.51,93.79,56.66Z"/><path class="cls-49" d="M93.66,56.73c0,.93.66,1.3,1.47.84A3.23,3.23,0,0,0,96.59,55c0-.92-.66-1.3-1.47-.83A3.19,3.19,0,0,0,93.66,56.73Zm.08,0a3,3,0,0,1,1.38-2.39c.77-.45,1.39-.09,1.39.79a3.06,3.06,0,0,1-1.38,2.39C94.36,57.92,93.74,57.57,93.74,56.69Z"/><polygon class="cls-50" points="98.06 52.12 98.06 52.59 86.75 59.15 86.74 58.69 98.06 52.12"/><g class="cls-2"><polygon class="cls-51" points="87.81 48.83 80.19 44.4 91.85 37.68 99.46 42.11 87.81 48.83"/></g><polygon class="cls-52" points="99.46 42.11 99.46 42.32 87.83 49.02 87.81 48.83 99.46 42.11"/><polygon class="cls-52" points="87.81 48.83 87.62 48.73 99.3 42.01 99.46 42.11 87.81 48.83"/><polygon class="cls-52" points="87.83 49.02 80.19 44.6 80.19 44.4 87.81 48.83 87.83 49.02"/><polygon class="cls-52" points="87.62 48.73 80.19 44.4 80.37 44.3 87.78 48.64 87.62 48.73"/><polygon class="cls-52" points="87.49 48.83 87.83 49.02 88.18 48.83 88.18 58.27 87.83 58.46 87.49 58.26 87.49 48.83"/><polygon class="cls-53" points="87.83 58.46 80.22 54.03 80.19 44.4 87.81 48.83 87.83 58.46"/><polygon class="cls-54" points="99.46 42.11 99.49 51.74 87.83 58.46 87.81 48.83 99.46 42.11"/><path class="cls-51" d="M80.76,58.64l-7-4c0,.52-.08,1.09-.08,1.7,0,.37,0,.72,0,1h0c0,.26,0,.5.06.72l7,4.05C80.76,61,80.76,59.8,80.76,58.64Z"/><polygon class="cls-55" points="86.76 58.84 79.78 54.78 79.78 54.32 86.75 58.37 86.76 58.84"/><polygon class="cls-56" points="86.09 56.6 86.09 56.66 84.95 57.31 84.95 57.25 86.09 56.6"/><g class="cls-57"><path class="cls-54" d="M85.35,56.79l.41-.23-.7.41a.22.22,0,0,0-.11.18v.2c0,.07,0,.1.11.07l.53-.31c-.2.12-.44.26-.71.44a22.88,22.88,0,0,0-4.17,3.83A14,14,0,0,1,84,57.7,11.86,11.86,0,0,1,85.35,56.79Z"/></g><path class="cls-58" d="M86.09,56.65,85,57.31v0c0,.07,0,.1.11.07l.53-.31.16-.09.23-.14a.22.22,0,0,0,.11-.18Zm-1.14.6v0Z"/><path class="cls-59" d="M86,56.44c.06,0,.11,0,.11.06v.1L85,57.25v-.1a.22.22,0,0,1,.11-.18l.7-.41Z"/><path class="cls-60" d="M80.45,63l-7-4s0,0,0,0l7,4.06S80.45,63,80.45,63Z"/><polygon class="cls-61" points="80.45 62.97 73.47 58.92 73.47 58.31 80.44 62.37 80.45 62.97"/><path class="cls-50" d="M86.76,58.65v.76L80.51,63s-.06,0-.06,0v-.6a.14.14,0,0,1,.07-.12l.26-.15Z"/><path class="cls-60" d="M80.46,62.3h0l0,0h0s0,0,0,0l.26-.15-7-4.05-.25.15,0,0h0l7,4.06s0,0,0,0h0S80.46,62.31,80.46,62.3Z"/><path class="cls-62" d="M86,52.43c.07,0,.12,0,.12.06V54a.26.26,0,0,1-.09.19l-4.26,3.68s-.07,0,0,0L83.4,54a.31.31,0,0,1,.1-.12Z"/><path class="cls-63" d="M86,52.24a.17.17,0,0,1,.28.16v1.51a.59.59,0,0,1-.21.43L81.71,58.1a.05.05,0,0,1,0,0c-.12.08-.21,0-.13-.21l1.73-4a.57.57,0,0,1,.23-.27ZM86.12,54V52.49c0-.07-.05-.1-.12-.06l-2.5,1.44a.31.31,0,0,0-.1.12l-1.68,3.83s0,.07,0,0L86,54.19a.26.26,0,0,0,.09-.19"/><path class="cls-64" d="M80.76,58.64a29.37,29.37,0,0,1-3.69-1.8,32.7,32.7,0,0,1-3-2q2.37-2.07,4.76-4.12l4.42,2.55Z"/><g class="cls-65"><path class="cls-64" d="M76.62,49.19a.16.16,0,0,0,0,.07l-2.23,5s0,.09.05.06l5.67-4.81a.35.35,0,0,0,.12-.24v-.09Z"/></g><path class="cls-63" d="M80.19,49.19v.09a.35.35,0,0,1-.12.24l-5.68,4.82s-.07,0,0-.07l2.23-5a.16.16,0,0,1,0-.07h-.2s0,0,0,0l-2.3,5.17c-.1.23,0,.38.18.28l0,0,5.79-4.92a.8.8,0,0,0,.28-.53Z"/><polygon class="cls-66" points="76.23 49.2 76.43 49.31 73.98 54.7 73.78 54.59 76.23 49.2"/><path class="cls-52" d="M76.23,49.2c-.83,1.81-1.62,3.62-2.45,5.43a32.17,32.17,0,0,0,3,2,30.68,30.68,0,0,0,4,2l2.46-5.4Zm6.71,4.27-2.11,4.7-.08.16c-1.15-.55-2.37-1.18-3.63-1.92s-2.13-1.3-3.06-1.94l.06-.13c.75-1.64,1.36-3.06,2.11-4.7l.08-.16.15.09c.88.63,1.86,1.27,3,1.9s2.38,1.3,3.46,1.8l.13.07Z"/><path class="cls-51" d="M86.73,51.22h0a.9.9,0,0,0-.46-.81l-5.55-3.23a.91.91,0,0,0-.94,0l0,0-3.53,2,7,4,3.38-2,.14.16Z"/><path class="cls-54" d="M83.21,53.25l3.52-2,0,7.43-6,3.45c0-.22,0-.46-.07-.72a23.54,23.54,0,0,1,4.18-3.83c.27-.18.51-.32.71-.44l.16-.09.23-.14a.22.22,0,0,0,.11-.18v-.2c0-.07,0-.1-.11-.06l-.22.12-.41.23A11.86,11.86,0,0,0,84,57.7a14.36,14.36,0,0,0-3.31,3.68c0-.32,0-.67,0-1,0-.6,0-1.18.09-1.7Zm3.07.66V52.4a.17.17,0,0,0-.28-.16l-2.5,1.45a.57.57,0,0,0-.23.27l-1.73,4c-.08.17,0,.29.13.21a.05.05,0,0,0,0,0l4.36-3.76a.59.59,0,0,0,.21-.43"/><path class="cls-43" d="M84.72,61.53a2.3,2.3,0,0,0,.39-1.13.58.58,0,0,0,.11.15.23.23,0,0,0,.12.06c.12,0,.28-.49.19-.92a1.24,1.24,0,0,0-.38-.66,1.38,1.38,0,0,0-1.1-.3A2.29,2.29,0,0,0,82.45,60a2.87,2.87,0,0,0-.31,1.52Z"/><path class="cls-67" d="M80.77,53.77a1.73,1.73,0,0,0-.35-.27,1,1,0,0,0-.32-.13.48.48,0,0,0-.33.06.25.25,0,0,0-.1.15.33.33,0,0,0,0,.14,1.24,1.24,0,0,0,.4.42,3,3,0,0,0,.5.27l.13.05a1.06,1.06,0,0,0,.25,0,.39.39,0,0,0,.15,0,.14.14,0,0,0,.11-.09.16.16,0,0,0,0-.1.47.47,0,0,0-.16-.3,1.32,1.32,0,0,0-.29-.19l-.09-.06"/><path class="cls-68" d="M80.71,53.8a1.46,1.46,0,0,0-.28-.21.6.6,0,0,0-.25-.1.36.36,0,0,0-.27,0,.2.2,0,0,0-.08.12.28.28,0,0,0,0,.12,1,1,0,0,0,.31.33,3.23,3.23,0,0,0,.41.22l.1,0a.65.65,0,0,0,.2,0H81a.23.23,0,0,0,.09-.08.17.17,0,0,0,0-.07A.37.37,0,0,0,81,54a.94.94,0,0,0-.23-.16.18.18,0,0,1-.07-.05"/><path class="cls-67" d="M80.63,53.85a.7.7,0,0,0-.19-.15.49.49,0,0,0-.17-.06.2.2,0,0,0-.17,0,.09.09,0,0,0,0,.08.07.07,0,0,0,0,.07.66.66,0,0,0,.21.23l.27.14.07,0h.21a.15.15,0,0,0,.06,0,.09.09,0,0,0,0-.05.32.32,0,0,0-.09-.16.57.57,0,0,0-.16-.11l-.05,0"/><path class="cls-9" d="M84.78,59.1A1.45,1.45,0,0,0,83.41,59c-1.12.49-1.64,2.35-1,3.13a1.22,1.22,0,0,0,.92.41,1.73,1.73,0,0,0,1.23-.78,2.88,2.88,0,0,0,.63-1.55A1.34,1.34,0,0,0,84.78,59.1Z"/><path class="cls-43" d="M82.61,61.65c0,.83.59,1.16,1.31.75a2.89,2.89,0,0,0,1.3-2.26c0-.83-.59-1.16-1.31-.75A2.89,2.89,0,0,0,82.61,61.65Zm.07,0a2.71,2.71,0,0,1,1.23-2.14c.69-.39,1.24-.08,1.24.71a2.71,2.71,0,0,1-1.23,2.14C83.24,62.71,82.68,62.4,82.68,61.61Z"/><path class="cls-43" d="M83.91,59.45a2.77,2.77,0,0,0-1.26,2.18c0,.8.57,1.12,1.27.72a2.77,2.77,0,0,0,1.26-2.18C85.17,59.37,84.61,59.05,83.91,59.45Z"/><path class="cls-45" d="M83.91,59.89A1.92,1.92,0,0,0,83,61.41c0,.56.39.78.88.5a1.92,1.92,0,0,0,.87-1.52C84.79,59.84,84.4,59.61,83.91,59.89Z"/><path class="cls-46" d="M83.91,60.07a1.59,1.59,0,0,0-.72,1.25c0,.46.33.65.73.42a1.62,1.62,0,0,0,.72-1.26C84.64,60,84.31,59.84,83.91,60.07Z"/><path class="cls-45" d="M83.91,60.43a.91.91,0,0,0-.4.71c0,.26.18.36.41.23a.9.9,0,0,0,.4-.7C84.32,60.41,84.14,60.3,83.91,60.43Z"/><polygon class="cls-47" points="84.04 60.62 84.04 60.61 84.04 60.61 84.04 60.61 84.04 60.61 84.04 60.6 84.04 60.6 84.04 60.6 84.04 60.6 84.04 60.6 84.04 60.59 84.04 60.59 84.04 60.59 84.04 60.59 84.04 60.59 84.04 60.58 84.04 60.58 84.04 60.58 84.05 60.58 84.05 60.58 84.05 60.58 84.05 60.58 84.05 60.57 84.05 60.57 84.05 60.57 84.05 60.57 84.05 60.57 84.05 60.56 84.05 60.56 84.05 60.56 84.05 60.56 84.06 60.55 84.06 60.55 84.06 60.55 84.06 60.55 84.06 60.55 84.06 60.54 84.06 60.54 84.07 60.53 84.07 60.53 84.07 60.53 84.07 60.53 84.08 60.53 84.08 60.53 84.08 60.53 84.08 60.52 84.08 60.52 84.08 60.52 84.08 60.52 84.08 60.52 84.09 60.51 84.09 60.51 84.09 60.51 84.09 60.51 84.09 60.51 84.09 60.51 84.09 60.51 84.09 60.51 84.1 60.5 84.1 60.5 84.1 60.5 84.1 60.5 84.1 60.5 84.11 60.5 84.11 60.5 84.11 60.5 84.11 60.49 84.11 60.49 84.12 60.49 84.12 60.49 84.12 60.49 84.12 60.49 84.12 60.49 84.12 60.49 84.13 60.49 84.13 60.49 84.13 60.49 84.13 60.49 84.13 60.49 84.13 60.49 84.14 60.49 84.14 60.49 84.14 60.49 84.14 60.49 84.14 60.49 84.14 60.49 84.14 60.49 84.15 60.49 84.15 60.49 84.15 60.49 84.15 60.49 84.15 60.49 84.16 60.49 84.18 60.51 84.18 60.51 84.17 60.5 84.17 60.5 84.17 60.5 84.17 60.5 84.16 60.5 84.16 60.5 84.16 60.5 84.15 60.5 84.15 60.51 84.15 60.51 84.14 60.51 84.14 60.51 84.13 60.51 84.13 60.52 84.13 60.52 84.12 60.52 84.12 60.52 84.11 60.53 84.11 60.53 84.11 60.53 84.11 60.53 84.1 60.54 84.1 60.54 84.09 60.55 84.09 60.55 84.09 60.55 84.09 60.56 84.09 60.56 84.08 60.56 84.08 60.57 84.08 60.57 84.08 60.57 84.08 60.58 84.08 60.58 84.07 60.59 84.07 60.59 84.07 60.6 84.07 60.6 84.07 60.61 84.07 60.61 84.06 60.62 84.06 60.62 84.06 60.62 84.06 60.63 84.06 60.63 84.06 60.64 84.06 60.64 84.06 60.65 84.06 60.65 84.07 60.66 84.07 60.66 84.07 60.66 84.07 60.66 84.07 60.67 84.07 60.67 84.08 60.67 84.08 60.67 84.08 60.67 84.08 60.68 84.08 60.68 84.06 60.66 84.05 60.66 84.05 60.66 84.05 60.66 84.05 60.66 84.05 60.65 84.05 60.65 84.05 60.65 84.04 60.65 84.04 60.65 84.04 60.65 84.04 60.64 84.04 60.64 84.04 60.64 84.04 60.64 84.04 60.64 84.04 60.63 84.04 60.63 84.04 60.63 84.04 60.63 84.04 60.63 84.04 60.63 84.04 60.63 84.04 60.62 84.04 60.62 84.04 60.62 84.04 60.62"/><path class="cls-46" d="M84.13,60.51a.15.15,0,0,0-.07.12s0,.07.07,0a.14.14,0,0,0,.07-.12S84.17,60.49,84.13,60.51Z"/><polygon class="cls-47" points="83.65 60.86 83.65 60.85 83.65 60.85 83.65 60.85 83.65 60.85 83.65 60.85 83.65 60.84 83.65 60.84 83.65 60.84 83.65 60.84 83.65 60.84 83.65 60.83 83.65 60.83 83.65 60.83 83.65 60.83 83.65 60.83 83.65 60.83 83.65 60.82 83.66 60.82 83.66 60.82 83.66 60.82 83.66 60.82 83.66 60.81 83.66 60.81 83.66 60.81 83.66 60.81 83.66 60.81 83.66 60.8 83.66 60.8 83.66 60.8 83.66 60.8 83.67 60.8 83.67 60.79 83.67 60.79 83.67 60.79 83.67 60.79 83.67 60.78 83.67 60.78 83.68 60.77 83.68 60.77 83.68 60.77 83.68 60.77 83.69 60.77 83.69 60.77 83.69 60.77 83.69 60.76 83.69 60.76 83.69 60.76 83.69 60.76 83.69 60.76 83.7 60.76 83.7 60.75 83.7 60.75 83.7 60.75 83.7 60.75 83.7 60.75 83.7 60.75 83.7 60.75 83.71 60.74 83.71 60.74 83.71 60.74 83.71 60.74 83.72 60.74 83.72 60.74 83.72 60.74 83.72 60.74 83.72 60.73 83.72 60.73 83.73 60.73 83.73 60.73 83.73 60.73 83.73 60.73 83.73 60.73 83.73 60.73 83.73 60.73 83.74 60.73 83.74 60.73 83.74 60.73 83.74 60.73 83.74 60.73 83.75 60.73 83.75 60.73 83.75 60.73 83.75 60.73 83.75 60.73 83.75 60.73 83.75 60.73 83.76 60.73 83.76 60.73 83.76 60.73 83.76 60.73 83.76 60.73 83.77 60.73 83.79 60.75 83.79 60.74 83.78 60.74 83.78 60.74 83.78 60.74 83.78 60.74 83.77 60.74 83.77 60.74 83.77 60.74 83.76 60.74 83.76 60.75 83.76 60.75 83.75 60.75 83.75 60.75 83.74 60.75 83.74 60.76 83.74 60.76 83.73 60.76 83.73 60.76 83.72 60.77 83.72 60.77 83.72 60.77 83.72 60.77 83.71 60.78 83.71 60.78 83.7 60.79 83.7 60.79 83.7 60.79 83.7 60.8 83.7 60.8 83.69 60.8 83.69 60.81 83.69 60.81 83.69 60.81 83.69 60.82 83.69 60.82 83.68 60.83 83.68 60.83 83.68 60.84 83.68 60.84 83.68 60.85 83.68 60.85 83.67 60.86 83.67 60.86 83.67 60.87 83.67 60.87 83.67 60.87 83.67 60.88 83.67 60.88 83.67 60.89 83.67 60.89 83.68 60.9 83.68 60.9 83.68 60.9 83.68 60.9 83.68 60.91 83.68 60.91 83.69 60.91 83.69 60.91 83.69 60.91 83.69 60.92 83.69 60.92 83.67 60.91 83.67 60.9 83.66 60.9 83.66 60.9 83.66 60.9 83.66 60.89 83.66 60.89 83.66 60.89 83.65 60.89 83.65 60.89 83.65 60.89 83.65 60.88 83.65 60.88 83.65 60.88 83.65 60.88 83.65 60.88 83.65 60.88 83.65 60.87 83.65 60.87 83.65 60.87 83.65 60.87 83.65 60.87 83.65 60.87 83.65 60.86 83.65 60.86 83.65 60.86 83.65 60.86"/><path class="cls-46" d="M83.74,60.75a.15.15,0,0,0-.07.12c0,.05,0,.07.07,0a.14.14,0,0,0,.07-.12S83.78,60.73,83.74,60.75Z"/><polygon class="cls-47" points="84.02 61.01 84.02 61.01 84.02 61 84.02 61 84.02 61 84.02 61 84.02 60.99 84.02 60.99 84.02 60.99 84.02 60.99 84.02 60.99 84.02 60.99 84.02 60.99 84.02 60.98 84.02 60.98 84.02 60.98 84.02 60.98 84.02 60.98 84.02 60.97 84.02 60.97 84.02 60.97 84.03 60.97 84.03 60.97 84.03 60.96 84.03 60.96 84.03 60.96 84.03 60.96 84.03 60.96 84.03 60.95 84.03 60.95 84.03 60.95 84.03 60.95 84.04 60.94 84.04 60.94 84.04 60.94 84.04 60.94 84.04 60.93 84.04 60.93 84.05 60.93 84.05 60.93 84.05 60.93 84.05 60.92 84.05 60.92 84.05 60.92 84.05 60.92 84.06 60.92 84.06 60.91 84.06 60.91 84.06 60.91 84.06 60.91 84.06 60.91 84.06 60.91 84.07 60.91 84.07 60.91 84.07 60.9 84.07 60.9 84.07 60.9 84.07 60.9 84.08 60.9 84.08 60.9 84.08 60.9 84.08 60.9 84.08 60.89 84.09 60.89 84.09 60.89 84.09 60.89 84.09 60.89 84.09 60.89 84.09 60.89 84.09 60.89 84.1 60.88 84.1 60.88 84.1 60.88 84.1 60.88 84.1 60.88 84.11 60.88 84.11 60.88 84.11 60.88 84.11 60.88 84.11 60.88 84.11 60.88 84.11 60.88 84.11 60.88 84.12 60.88 84.12 60.88 84.12 60.88 84.12 60.88 84.13 60.88 84.13 60.88 84.13 60.88 84.13 60.88 84.13 60.88 84.14 60.89 84.16 60.9 84.16 60.9 84.15 60.9 84.15 60.9 84.15 60.9 84.14 60.9 84.14 60.9 84.14 60.9 84.13 60.9 84.13 60.9 84.13 60.9 84.13 60.9 84.12 60.9 84.12 60.9 84.11 60.91 84.1 60.91 84.1 60.91 84.1 60.91 84.1 60.91 84.09 60.92 84.09 60.92 84.08 60.93 84.08 60.93 84.08 60.93 84.08 60.93 84.07 60.94 84.07 60.94 84.07 60.94 84.07 60.95 84.06 60.95 84.06 60.96 84.06 60.96 84.06 60.97 84.06 60.97 84.05 60.97 84.05 60.98 84.05 60.98 84.05 60.98 84.05 60.99 84.05 60.99 84.04 61 84.04 61 84.04 61.01 84.04 61.01 84.04 61.02 84.04 61.02 84.04 61.03 84.04 61.03 84.04 61.03 84.04 61.04 84.04 61.04 84.04 61.05 84.05 61.05 84.05 61.05 84.05 61.05 84.05 61.06 84.05 61.06 84.05 61.06 84.05 61.06 84.06 61.07 84.06 61.07 84.06 61.07 84.04 61.06 84.03 61.05 84.03 61.05 84.03 61.05 84.03 61.05 84.03 61.05 84.03 61.05 84.03 61.05 84.02 61.04 84.02 61.04 84.02 61.04 84.02 61.04 84.02 61.03 84.02 61.03 84.02 61.03 84.02 61.03 84.02 61.03 84.02 61.03 84.02 61.03 84.02 61.02 84.02 61.02 84.02 61.02 84.02 61.02 84.02 61.02 84.02 61.01 84.02 61.01 84.02 61.01"/><path class="cls-46" d="M84.11,60.91A.14.14,0,0,0,84,61s0,.06.07,0a.17.17,0,0,0,.07-.12C84.18,60.9,84.15,60.88,84.11,60.91Z"/><polygon class="cls-47" points="83.63 61.25 83.63 61.25 83.63 61.24 83.63 61.24 83.63 61.24 83.63 61.24 83.63 61.24 83.63 61.24 83.63 61.23 83.63 61.23 83.63 61.23 83.63 61.23 83.63 61.23 83.63 61.23 83.63 61.22 83.63 61.22 83.63 61.22 83.63 61.22 83.63 61.21 83.63 61.21 83.64 61.21 83.64 61.21 83.64 61.21 83.64 61.2 83.64 61.2 83.64 61.2 83.64 61.2 83.64 61.2 83.64 61.19 83.64 61.19 83.64 61.19 83.64 61.19 83.65 61.19 83.65 61.18 83.65 61.18 83.65 61.18 83.65 61.17 83.65 61.17 83.66 61.17 83.66 61.17 83.66 61.17 83.66 61.16 83.66 61.16 83.66 61.16 83.66 61.16 83.67 61.16 83.67 61.15 83.67 61.15 83.67 61.15 83.67 61.15 83.67 61.15 83.67 61.15 83.68 61.15 83.68 61.15 83.68 61.14 83.68 61.14 83.68 61.14 83.68 61.14 83.69 61.14 83.69 61.14 83.69 61.14 83.69 61.13 83.69 61.13 83.7 61.13 83.7 61.13 83.7 61.13 83.7 61.13 83.7 61.13 83.7 61.13 83.7 61.13 83.71 61.13 83.71 61.13 83.71 61.13 83.71 61.12 83.71 61.12 83.72 61.12 83.72 61.12 83.72 61.12 83.72 61.12 83.72 61.12 83.72 61.12 83.72 61.12 83.72 61.12 83.73 61.12 83.73 61.12 83.73 61.12 83.73 61.12 83.74 61.12 83.74 61.12 83.74 61.12 83.74 61.12 83.74 61.12 83.75 61.13 83.77 61.14 83.77 61.14 83.76 61.14 83.76 61.14 83.76 61.14 83.75 61.14 83.75 61.14 83.75 61.14 83.74 61.14 83.74 61.14 83.74 61.14 83.74 61.14 83.73 61.14 83.73 61.14 83.72 61.15 83.71 61.15 83.71 61.15 83.71 61.16 83.71 61.16 83.7 61.16 83.7 61.16 83.69 61.17 83.69 61.17 83.69 61.17 83.69 61.17 83.68 61.18 83.68 61.18 83.68 61.18 83.68 61.19 83.67 61.19 83.67 61.2 83.67 61.2 83.67 61.21 83.67 61.21 83.66 61.22 83.66 61.22 83.66 61.22 83.66 61.22 83.66 61.23 83.66 61.23 83.66 61.24 83.65 61.24 83.65 61.25 83.65 61.25 83.65 61.26 83.65 61.26 83.65 61.27 83.65 61.27 83.65 61.27 83.65 61.28 83.65 61.28 83.65 61.29 83.66 61.29 83.66 61.3 83.66 61.3 83.66 61.3 83.66 61.3 83.66 61.3 83.66 61.31 83.67 61.31 83.67 61.31 83.67 61.31 83.65 61.3 83.64 61.3 83.64 61.29 83.64 61.29 83.64 61.29 83.64 61.29 83.64 61.29 83.64 61.29 83.63 61.28 83.63 61.28 83.63 61.28 83.63 61.28 83.63 61.27 83.63 61.27 83.63 61.27 83.63 61.27 83.63 61.27 83.63 61.27 83.63 61.27 83.63 61.26 83.63 61.26 83.63 61.26 83.63 61.26 83.63 61.26 83.63 61.25 83.63 61.25 83.63 61.25"/><path class="cls-46" d="M83.72,61.15a.14.14,0,0,0-.07.12s0,.06.07,0a.17.17,0,0,0,.07-.12S83.76,61.12,83.72,61.15Z"/><path class="cls-48" d="M83.44,61.18c0,.3.22.42.48.27a1.06,1.06,0,0,0,.47-.82c0-.3-.22-.42-.48-.27A1,1,0,0,0,83.44,61.18Zm.07,0a.91.91,0,0,1,.4-.71c.23-.13.41,0,.41.24a.9.9,0,0,1-.4.7C83.69,61.5,83.51,61.4,83.51,61.14Z"/><path class="cls-49" d="M82.71,61.59c0,.76.55,1.07,1.21.69a2.68,2.68,0,0,0,1.2-2.08c0-.76-.54-1.07-1.21-.69A2.68,2.68,0,0,0,82.71,61.59Zm.07,0a2.46,2.46,0,0,1,1.13-2c.63-.37,1.14-.08,1.15.65a2.53,2.53,0,0,1-1.14,2C83.29,62.57,82.78,62.28,82.78,61.55Z"/><path class="cls-49" d="M82.74,61.57c0,.75.53,1,1.18.67a2.57,2.57,0,0,0,1.17-2c0-.74-.53-1-1.18-.67A2.57,2.57,0,0,0,82.74,61.57Zm.06,0a2.45,2.45,0,0,1,1.11-1.92c.62-.36,1.11-.07,1.12.63a2.45,2.45,0,0,1-1.11,1.92C83.31,62.53,82.81,62.24,82.8,61.54Z"/><path class="cls-49" d="M82.68,61.61c0,.79.56,1.1,1.24.71a2.74,2.74,0,0,0,1.23-2.14c0-.78-.56-1.1-1.24-.71A2.74,2.74,0,0,0,82.68,61.61Zm.06,0a2.57,2.57,0,0,1,1.17-2c.65-.38,1.18-.08,1.18.67a2.57,2.57,0,0,1-1.17,2C83.27,62.62,82.74,62.32,82.74,61.57Z"/><path class="cls-49" d="M82.65,61.62c0,.8.57,1.13,1.27.73a2.79,2.79,0,0,0,1.26-2.18c0-.8-.57-1.13-1.27-.72A2.75,2.75,0,0,0,82.65,61.62Zm.07,0a2.64,2.64,0,0,1,1.19-2.07c.66-.38,1.2-.07,1.2.68a2.64,2.64,0,0,1-1.19,2.07C83.26,62.65,82.72,62.35,82.72,61.59Z"/><path class="cls-49" d="M82.61,61.65c0,.83.59,1.16,1.31.75a2.89,2.89,0,0,0,1.3-2.26c0-.83-.59-1.16-1.31-.75A2.89,2.89,0,0,0,82.61,61.65Zm.07,0a2.71,2.71,0,0,1,1.23-2.14c.69-.39,1.24-.08,1.24.71a2.71,2.71,0,0,1-1.23,2.14C83.24,62.71,82.68,62.4,82.68,61.61Z"/><path class="cls-69" d="M73.7,56.11a2.44,2.44,0,0,1,.5.31,2.33,2.33,0,0,1,.57.7s0,0,0,0l0,.05.08.51a.16.16,0,0,1-.22.17,1.25,1.25,0,0,1-.55-.17,1.17,1.17,0,0,1-.42-.46C73.71,56.87,73.7,56.49,73.7,56.11Z"/><path class="cls-69" d="M78.64,59.64a2.73,2.73,0,0,0-.13.42.25.25,0,0,0,.23.31c.67.3,1.31.26,1.57-.07a.6.6,0,0,0,.14-.31h0a.44.44,0,0,0-.4-.43l-.51-.19S78.91,59.28,78.64,59.64Z"/><path class="cls-54" d="M78.1,58.83l-2.75-1.6c0,.21,0,.43,0,.67s0,.29,0,.41h0l0,.29,2.75,1.6Z"/><path class="cls-70" d="M83,53.34l-2.25,5c-1-.46-2-1-3-1.58-1.33-.75-2.55-1.52-3.65-2.28a11,11,0,0,0,5.5-1.06,10.25,10.25,0,0,0,1.6-1l1,.47Z"/><path class="cls-71" d="M85.56,60.1l1.2-.69v-.26l3.43-2-.1.51a.73.73,0,0,1-.37.51l-4.32,2.41Z"/><polygon class="cls-50" points="99.49 50.13 99.49 51.15 87.83 57.87 87.83 56.85 99.49 50.13"/><polygon class="cls-50" points="99.49 49.19 99.49 49.62 87.83 56.34 87.83 55.91 99.49 49.19"/><polygon class="cls-50" points="99.49 43.47 99.49 43.9 87.83 50.62 87.83 50.19 99.49 43.47"/><path class="cls-7" d="M37.72,64.73l-1.25.72,7.07,4.21.74-.39Q41,67,37.72,64.73Z"/><polygon class="cls-72" points="44.08 64.2 46.12 63.02 46.12 60.69 44.09 61.86 44.08 64.2"/><polygon class="cls-73" points="44.08 61.87 46.12 60.69 44.08 59.51 42.05 60.69 44.08 61.87"/><polygon class="cls-74" points="42.05 60.69 42.05 63.03 44.08 64.2 44.09 61.86 42.05 60.69"/><g class="cls-75"><g class="cls-2"><polygon class="cls-74" points="42.87 61.16 42.86 63.5 43.06 63.62 43.07 61.27 42.87 61.16"/></g></g><g class="cls-75"><g class="cls-2"><polygon class="cls-74" points="45.2 61.22 45.21 63.55 45.01 63.67 45 61.34 45.2 61.22"/></g></g><polygon class="cls-76" points="42.86 61.16 43.77 60.63 42.97 60.16 43.17 60.04 43.98 60.51 44.9 59.97 45.1 60.09 44.19 60.63 45.2 61.22 45 61.34 43.98 60.75 43.07 61.27 42.86 61.16"/><polygon class="cls-72" points="46.35 65.5 48.38 64.32 48.38 61.98 46.35 63.16 46.35 65.5"/><polygon class="cls-73" points="46.35 63.16 48.38 61.98 46.34 60.8 44.31 61.99 46.35 63.16"/><polygon class="cls-74" points="44.32 61.98 44.31 64.32 46.35 65.5 46.35 63.16 44.32 61.98"/><g class="cls-75"><g class="cls-2"><polygon class="cls-74" points="45.13 62.45 45.12 64.79 45.33 64.91 45.33 62.57 45.13 62.45"/></g></g><g class="cls-75"><g class="cls-2"><polygon class="cls-74" points="47.47 62.51 47.47 64.85 47.27 64.97 47.26 62.63 47.47 62.51"/></g></g><polygon class="cls-76" points="45.13 62.45 46.04 61.92 45.23 61.45 45.43 61.33 46.24 61.8 47.16 61.27 47.37 61.39 46.45 61.92 47.47 62.51 47.26 62.63 46.24 62.04 45.33 62.57 45.13 62.45"/><polygon class="cls-77" points="48.61 66.79 50.64 65.61 50.64 63.27 48.62 64.45 48.61 66.79"/><polygon class="cls-73" points="48.61 64.46 50.64 63.27 48.61 62.1 46.57 63.28 48.61 64.46"/><polygon class="cls-74" points="46.58 63.28 46.57 65.62 48.61 66.79 48.62 64.45 46.58 63.28"/><g class="cls-75"><g class="cls-2"><polygon class="cls-74" points="47.39 63.74 47.38 66.09 47.59 66.2 47.6 63.86 47.39 63.74"/></g></g><g class="cls-75"><g class="cls-2"><polygon class="cls-74" points="49.73 63.81 49.74 66.14 49.53 66.26 49.52 63.92 49.73 63.81"/></g></g><polygon class="cls-76" points="47.39 63.74 48.3 63.22 47.49 62.74 47.7 62.63 48.51 63.09 49.42 62.56 49.63 62.68 48.71 63.22 49.73 63.81 49.52 63.92 48.51 63.34 47.6 63.86 47.39 63.74"/><polygon class="cls-72" points="41.92 65.44 43.95 64.26 43.95 61.93 41.92 63.1 41.92 65.44"/><polygon class="cls-73" points="41.92 63.11 43.95 61.93 41.91 60.75 39.88 61.93 41.92 63.11"/><polygon class="cls-74" points="39.89 61.93 39.88 64.27 41.92 65.44 41.92 63.1 39.89 61.93"/><g class="cls-75"><g class="cls-2"><polygon class="cls-74" points="40.7 62.4 40.69 64.74 40.9 64.86 40.9 62.52 40.7 62.4"/></g></g><g class="cls-75"><g class="cls-2"><polygon class="cls-74" points="43.04 62.46 43.04 64.8 42.84 64.91 42.83 62.58 43.04 62.46"/></g></g><polygon class="cls-76" points="40.7 62.4 41.61 61.87 40.8 61.4 41.01 61.28 41.81 61.75 42.73 61.22 42.94 61.34 42.02 61.87 43.04 62.46 42.83 62.58 41.81 61.99 40.9 62.52 40.7 62.4"/><polygon class="cls-77" points="44.18 66.74 46.21 65.56 46.21 63.22 44.19 64.4 44.18 66.74"/><polygon class="cls-78" points="44.18 64.4 46.21 63.22 44.18 62.05 42.14 63.23 44.18 64.4"/><polygon class="cls-74" points="42.15 63.22 42.14 65.56 44.18 66.74 44.19 64.4 42.15 63.22"/><g class="cls-75"><g class="cls-2"><polygon class="cls-74" points="42.96 63.69 42.95 66.03 43.16 66.15 43.17 63.81 42.96 63.69"/></g></g><g class="cls-75"><g class="cls-2"><polygon class="cls-74" points="45.3 63.75 45.31 66.09 45.1 66.21 45.09 63.87 45.3 63.75"/></g></g><polygon class="cls-76" points="42.96 63.69 43.87 63.16 43.06 62.69 43.27 62.57 44.08 63.04 44.99 62.51 45.2 62.63 44.28 63.16 45.3 63.75 45.09 63.87 44.08 63.28 43.17 63.81 42.96 63.69"/><polygon class="cls-77" points="46.44 68.03 48.48 66.85 48.48 64.52 46.45 65.69 46.44 68.03"/><polygon class="cls-78" points="46.44 65.7 48.48 64.52 46.44 63.34 44.41 64.52 46.44 65.7"/><polygon class="cls-79" points="44.41 64.52 44.41 66.86 46.44 68.03 46.45 65.69 44.41 64.52"/><g class="cls-75"><g class="cls-2"><polygon class="cls-74" points="45.22 64.99 45.22 67.33 45.42 67.44 45.43 65.11 45.22 64.99"/></g></g><g class="cls-75"><g class="cls-2"><polygon class="cls-74" points="47.56 65.05 47.57 67.38 47.36 67.5 47.36 65.17 47.56 65.05"/></g></g><polygon class="cls-76" points="45.22 64.98 46.13 64.46 45.32 63.98 45.53 63.87 46.34 64.34 47.26 63.8 47.46 63.92 46.55 64.46 47.56 65.05 47.36 65.17 46.34 64.58 45.43 65.1 45.22 64.98"/><polygon class="cls-77" points="39.75 66.69 41.78 65.5 41.78 63.17 39.76 64.35 39.75 66.69"/><polygon class="cls-78" points="39.75 64.35 41.78 63.17 39.75 61.99 37.71 63.17 39.75 64.35"/><polygon class="cls-79" points="37.72 63.17 37.72 65.51 39.75 66.69 39.76 64.35 37.72 63.17"/><g class="cls-75"><g class="cls-2"><polygon class="cls-74" points="38.53 63.64 38.52 65.98 38.73 66.1 38.74 63.76 38.53 63.64"/></g></g><g class="cls-75"><g class="cls-2"><polygon class="cls-74" points="40.87 63.7 40.88 66.04 40.67 66.16 40.66 63.82 40.87 63.7"/></g></g><polygon class="cls-76" points="38.53 63.64 39.44 63.11 38.63 62.64 38.84 62.52 39.65 62.99 40.56 62.46 40.77 62.58 39.85 63.11 40.87 63.7 40.66 63.82 39.65 63.23 38.74 63.76 38.53 63.64"/><polygon class="cls-77" points="42.01 67.98 44.05 66.8 44.05 64.46 42.02 65.64 42.01 67.98"/><polygon class="cls-78" points="42.01 65.64 44.05 64.46 42.01 63.29 39.98 64.47 42.01 65.64"/><polygon class="cls-79" points="39.98 64.47 39.98 66.81 42.01 67.98 42.02 65.64 39.98 64.47"/><g class="cls-75"><g class="cls-2"><polygon class="cls-74" points="40.8 64.93 40.79 67.27 40.99 67.39 41 65.05 40.8 64.93"/></g></g><g class="cls-75"><g class="cls-2"><polygon class="cls-74" points="43.13 64.99 43.14 67.33 42.94 67.45 42.93 65.11 43.13 64.99"/></g></g><polygon class="cls-76" points="40.79 64.93 41.7 64.4 40.9 63.93 41.1 63.81 41.91 64.28 42.83 63.75 43.03 63.87 42.12 64.4 43.13 64.99 42.93 65.11 41.91 64.52 41 65.05 40.79 64.93"/><polygon class="cls-77" points="44.28 69.28 46.31 68.09 46.31 65.76 44.28 66.94 44.28 69.28"/><polygon class="cls-78" points="44.28 66.94 46.31 65.76 44.27 64.58 42.24 65.76 44.28 66.94"/><polygon class="cls-79" points="42.25 65.76 42.24 68.1 44.28 69.28 44.28 66.94 42.25 65.76"/><g class="cls-75"><g class="cls-2"><polygon class="cls-74" points="43.06 66.23 43.05 68.57 43.26 68.69 43.26 66.34 43.06 66.23"/></g></g><g class="cls-75"><g class="cls-2"><polygon class="cls-74" points="45.4 66.29 45.4 68.63 45.2 68.74 45.19 66.41 45.4 66.29"/></g></g><polygon class="cls-76" points="43.06 66.23 43.97 65.7 43.16 65.23 43.36 65.11 44.17 65.58 45.09 65.05 45.3 65.16 44.38 65.7 45.4 66.29 45.19 66.41 44.17 65.82 43.26 66.34 43.06 66.23"/><polygon class="cls-77" points="44.09 61.86 46.12 60.67 46.12 58.34 44.09 59.52 44.09 61.86"/><polygon class="cls-78" points="44.09 59.52 46.12 58.34 44.08 57.16 42.05 58.34 44.09 59.52"/><polygon class="cls-79" points="42.06 58.34 42.05 60.68 44.09 61.86 44.09 59.52 42.06 58.34"/><g class="cls-75"><g class="cls-2"><polygon class="cls-74" points="42.87 58.81 42.86 61.15 43.07 61.27 43.07 58.93 42.87 58.81"/></g></g><g class="cls-75"><g class="cls-2"><polygon class="cls-74" points="45.21 58.87 45.21 61.21 45.01 61.33 45 58.99 45.21 58.87"/></g></g><polygon class="cls-76" points="42.87 58.81 43.78 58.28 42.97 57.81 43.17 57.69 43.98 58.16 44.9 57.63 45.1 57.75 44.19 58.28 45.21 58.87 45 58.99 43.98 58.4 43.07 58.93 42.87 58.81"/><polygon class="cls-77" points="41.92 63.1 43.95 61.92 43.95 59.58 41.93 60.76 41.92 63.1"/><polygon class="cls-78" points="41.92 60.76 43.95 59.58 41.92 58.4 39.88 59.59 41.92 60.76"/><polygon class="cls-79" points="39.89 59.58 39.88 61.92 41.92 63.1 41.93 60.76 39.89 59.58"/><g class="cls-75"><g class="cls-2"><polygon class="cls-74" points="40.7 60.05 40.69 62.39 40.9 62.51 40.91 60.17 40.7 60.05"/></g></g><g class="cls-75"><g class="cls-2"><polygon class="cls-74" points="43.04 60.11 43.05 62.45 42.84 62.57 42.83 60.23 43.04 60.11"/></g></g><polygon class="cls-76" points="40.7 60.05 41.61 59.52 40.8 59.05 41.01 58.93 41.82 59.4 42.73 58.87 42.94 58.99 42.02 59.52 43.04 60.11 42.83 60.23 41.82 59.64 40.91 60.17 40.7 60.05"/><polygon class="cls-77" points="46.35 63.17 48.38 61.99 48.38 59.65 46.36 60.83 46.35 63.17"/><polygon class="cls-78" points="46.35 60.83 48.38 59.65 46.34 58.47 44.31 59.66 46.35 60.83"/><polygon class="cls-79" points="44.32 59.65 44.31 61.99 46.35 63.17 46.36 60.83 44.32 59.65"/><g class="cls-75"><g class="cls-2"><polygon class="cls-74" points="45.13 60.12 45.12 62.46 45.33 62.58 45.34 60.24 45.13 60.12"/></g></g><g class="cls-75"><g class="cls-2"><polygon class="cls-74" points="47.47 60.18 47.48 62.52 47.27 62.64 47.26 60.3 47.47 60.18"/></g></g><polygon class="cls-76" points="45.13 60.12 46.04 59.59 45.23 59.12 45.44 59 46.25 59.47 47.16 58.94 47.37 59.06 46.45 59.59 47.47 60.18 47.26 60.3 46.25 59.71 45.34 60.24 45.13 60.12"/><polygon class="cls-77" points="48.61 64.45 50.64 63.26 50.64 60.93 48.62 62.11 48.61 64.45"/><polygon class="cls-78" points="48.61 62.11 50.64 60.93 48.6 59.75 46.57 60.93 48.61 62.11"/><polygon class="cls-79" points="46.58 60.93 46.57 63.27 48.61 64.45 48.62 62.11 46.58 60.93"/><g class="cls-75"><g class="cls-2"><polygon class="cls-74" points="47.39 61.4 47.38 63.74 47.59 63.86 47.59 61.52 47.39 61.4"/></g></g><g class="cls-75"><g class="cls-2"><polygon class="cls-74" points="49.73 61.46 49.73 63.8 49.53 63.91 49.52 61.58 49.73 61.46"/></g></g><polygon class="cls-76" points="47.39 61.4 48.3 60.87 47.49 60.4 47.7 60.28 48.51 60.75 49.42 60.22 49.63 60.34 48.71 60.87 49.73 61.46 49.52 61.58 48.51 60.99 47.59 61.52 47.39 61.4"/><polygon class="cls-77" points="43.26 65.96 45.3 64.78 45.3 62.44 43.27 63.62 43.26 65.96"/><polygon class="cls-78" points="43.26 63.63 45.3 62.44 43.26 61.27 41.23 62.45 43.26 63.63"/><polygon class="cls-79" points="41.23 62.45 41.23 64.79 43.26 65.96 43.27 63.62 41.23 62.45"/><g class="cls-75"><g class="cls-2"><polygon class="cls-74" points="42.05 62.91 42.04 65.25 42.24 65.37 42.25 63.03 42.05 62.91"/></g></g><g class="cls-75"><g class="cls-2"><polygon class="cls-74" points="44.38 62.98 44.39 65.31 44.19 65.43 44.18 63.09 44.38 62.98"/></g></g><polygon class="cls-76" points="42.04 62.91 42.95 62.38 42.15 61.91 42.35 61.79 43.16 62.27 44.08 61.73 44.28 61.85 43.37 62.38 44.38 62.98 44.18 63.09 43.16 62.5 42.25 63.03 42.04 62.91"/></g></g></g></svg>